<svg width="1598" height="1024" viewBox="0 0 1598 1024" fill="none" xmlns="http://www.w3.org/2000/svg">
<g clip-path="url(#clip0_0_240)">
<path fill-rule="evenodd" clip-rule="evenodd" d="M1240.12 453.411C1181.42 429.409 1138.06 448.042 1123.95 477.112C1112.78 500.115 1112.56 548.781 1090.72 568.063C984.407 642.574 961.223 772.404 939.522 888.477C929.795 944.531 923.613 1001.13 921.111 1057.89C920.881 1063.09 926.11 1068.11 931.617 1067.87C1088.64 1060.66 1246 1061.2 1403.02 1067.65C1412.28 1067.71 1421.68 1066.9 1430.42 1063.78C1442.75 1068.36 1450.55 1054.25 1450.24 1044.48C1451.29 1038 1458.12 1033.51 1463.1 1029.37C1474.88 1020.09 1484.4 1009.43 1490.89 996.161C1500.17 978.17 1501.45 958.372 1509.72 940.324C1513.47 929.9 1514.9 919.016 1516.68 908.203C1521.3 897.351 1522.76 885.71 1523.25 874.182C1540.68 863.784 1532.2 838.283 1530.6 822.214C1527.87 803.56 1524.96 784.906 1521.41 766.377C1500.61 638.869 1405.94 566.035 1275.91 540.33C1249.8 524.534 1249.8 457.367 1240.12 453.411Z" fill="#D08B5B"/>
<path fill-rule="evenodd" clip-rule="evenodd" d="M1162.32 650.767L1161.37 651.83L1160.4 652.888C1153.62 660.261 1146.06 666.987 1138.35 673.54L1136.14 675.408L1134.02 677.195L1123.2 686.27L1118.38 690.279C1108.71 698.278 1098.95 706.179 1089.27 714.162C1063.86 735.135 1038.5 756.141 1013.27 777.315C999.959 788.48 986.684 799.695 973.48 810.994C976.462 810.85 979.461 811.203 982.486 811.229C987.364 811.269 992.25 810.994 997.083 810.382C998.782 810.165 1000.48 809.906 1002.17 809.611L1003.43 809.383L1004.69 809.143L1004.73 808.917L1004.75 808.858C1004.81 808.724 1005.01 808.758 1005.1 808.872L1005.12 808.918L1005.14 808.966L1005.14 809.051L1006.4 808.791C1011.86 807.641 1017.23 806.149 1022.51 804.469C1038.27 799.452 1053.58 792.986 1068.41 785.883C1097.25 772.08 1124.39 755.136 1149.3 735.629C1162.91 724.967 1175.91 713.483 1188.63 701.875C1187.68 699.354 1186.8 696.849 1185.86 694.512C1183.71 689.194 1181.63 683.837 1179.59 678.475L1178.36 675.257L1176.99 671.646L1176.7 670.85L1175.42 667.271C1173.63 662.323 1171.54 657.336 1167.27 653.982C1166.24 653.178 1165.14 652.463 1164.02 651.779L1163.45 651.439L1162.32 650.767ZM1314.55 568.114C1310.19 560.946 1301.87 562.542 1294.57 564.949L1294.31 565.034L1293.29 565.381L1292.28 565.735L1289.22 566.833L1287.85 567.336C1280.55 570.061 1273.63 573.539 1266.55 576.721L1265.14 577.353L1266.68 577.998L1267.71 578.435L1268.75 578.879C1276.51 582.236 1284.26 586.245 1289.39 592.638C1290.59 591.405 1292.41 590.646 1294.18 590.026L1294.52 589.912L1296.04 589.4L1301.38 587.551L1311.48 584.07L1311.67 584.008C1313.38 583.47 1317.12 582.85 1318.3 581.624C1318.88 581.026 1318.91 580.254 1318.8 579.467L1318.78 579.298L1318.67 578.626L1318.58 578.162L1318.48 577.673C1317.76 574.4 1316.27 570.937 1314.55 568.114Z" fill="#FDEA6B"/>
<path fill-rule="evenodd" clip-rule="evenodd" d="M1258.71 510.395L1258.13 508.858C1254.57 499.527 1250.21 498.832 1252.31 507.878L1252.63 509.241C1254.45 516.98 1256.62 524.978 1261.08 531.749C1268.76 543.425 1288.89 547.755 1302.32 551.908C1302.27 552.202 1302.27 552.496 1302.31 552.773C1294.1 553.962 1285.68 557.713 1278.81 561.919C1272.52 565.779 1266.84 570.109 1262.61 575.864L1241.9 567.32C1235.06 564.506 1228.17 561.156 1220.75 560.025C1210.28 558.434 1194.13 563.761 1195.37 576.3C1195.53 577.991 1196.65 579.247 1198.02 579.867C1196.97 579.784 1195.91 579.757 1194.87 579.792C1187.86 580.018 1177.97 585.906 1181.63 593.67C1182.56 595.671 1185.26 594.357 1185.47 592.682C1186.86 581.669 1198.84 584.257 1207.16 586.057C1214.69 587.682 1222.12 589.675 1229.4 592.112C1237.18 594.717 1244.7 598.034 1251.64 602.297C1258.8 606.702 1265.5 612.047 1265.06 620.841C1265.04 621.026 1265.35 621.118 1265.44 620.941C1269.13 613.454 1261.94 605.556 1256.09 601.242C1247.62 595.003 1237.71 590.513 1227.69 587.012C1222.54 585.215 1217.22 583.801 1211.89 582.549L1210.66 582.263C1207.53 581.542 1204.29 580.713 1201.02 580.211C1202.23 579.93 1203.28 579.099 1203.75 577.596L1203.81 577.387C1208.52 559.673 1233.76 573.921 1243.99 578.2C1251.3 581.258 1258.7 584.189 1265.93 587.43L1266.86 587.852C1272.47 590.407 1278.31 593.426 1282.08 598.235C1291.75 610.548 1283.07 627.173 1280.02 640.172C1279.15 643.9 1278.31 647.853 1278.25 651.682C1278.21 654.815 1279.22 657.77 1280.04 660.785L1280.52 662.561V662.561C1280.1 662.57 1279.67 662.989 1279.81 663.415C1283.24 674.052 1289.04 684.138 1294.7 693.837C1300.46 703.736 1306.4 713.587 1312.77 723.142C1335.42 757.131 1361.35 789.219 1389.8 819.011C1403.43 833.293 1418.18 846.618 1431.49 861.182C1437.68 867.959 1443.48 875.062 1448.31 882.801C1450.92 886.98 1453.27 891.319 1455.25 895.817L1455.64 896.707C1457.25 900.383 1458.85 903.623 1461.86 906.563C1463.36 908.028 1466.36 907.409 1466.84 905.315C1469.05 895.465 1461.71 884.828 1456.38 876.787C1450.63 868.11 1443.91 860.019 1436.77 852.338C1434.75 850.16 1432.69 848.017 1430.61 845.896C1439.92 848.326 1449.73 848.97 1459.22 850.563C1468.94 852.187 1478.6 854.122 1488.02 856.936C1496.67 859.516 1504.91 862.925 1512.79 867.197C1516.56 869.249 1520.26 871.502 1523.72 874.023C1524.04 874.257 1524.36 874.509 1524.68 874.752C1519.03 888.221 1514.69 902.191 1510.16 916.003C1507.07 925.445 1504.04 934.913 1501.03 944.386L1494.28 965.705C1489.41 981.073 1485.36 997.791 1476.77 1011.77C1473.07 1017.8 1468.06 1023.25 1462.33 1027.63C1459.55 1029.75 1456.52 1031.37 1453.38 1032.94C1451.41 1033.92 1449.66 1035.21 1447.83 1036.38C1446.62 1035.07 1444.79 1034.26 1442.54 1034.6L1442.29 1034.64C1435.19 1035.97 1427.87 1033.58 1421.55 1030.63C1414.97 1027.55 1408.42 1023.93 1402.85 1019.38C1391.91 1010.4 1382.83 999.223 1373.98 988.435C1342.44 949.941 1315.58 907.777 1293.69 863.671C1282.57 841.24 1272.19 818.433 1262.43 795.433C1257.55 783.943 1252.75 772.426 1248.06 760.858L1247.44 759.312C1243.25 748.698 1239.57 737.176 1232.83 727.816C1232.78 727.732 1232.7 727.665 1232.63 727.616C1232.61 727.347 1232.52 727.096 1232.38 726.878C1230.29 723.704 1226.28 722.773 1222.82 721.3C1218.91 719.632 1215.01 717.975 1211.11 716.317C1208.04 715.01 1203.55 713.904 1201.24 711.426C1198.63 708.637 1197.76 703.669 1196.49 700.218C1193.61 692.42 1190.5 684.715 1187.39 677.001C1184.65 670.225 1182.29 662.954 1178.45 656.64C1175.18 651.253 1170.5 648.412 1165.08 645.309L1163.91 644.636C1161.65 643.328 1159.24 641.76 1158.34 639.31C1156.88 635.306 1160.13 631.478 1163.59 629.569C1171.27 625.338 1180.47 630.221 1187.21 633.95C1193.98 637.702 1200.59 642.208 1207.83 645.115C1207.99 645.173 1208.11 644.947 1207.99 644.846C1202.17 639.782 1195.05 635.61 1188.37 631.493L1186.71 630.465C1182.27 627.709 1177.22 625.021 1171.87 624.275C1172.98 623.924 1172.64 622.558 1171.58 622.434C1161.07 621.217 1150.39 622.776 1139.98 620.448C1130.7 618.37 1122.59 613.387 1116.1 606.829C1109.98 600.647 1105.13 593.495 1100.6 586.208C1097.97 581.97 1095.41 577.698 1092.74 573.476C1092.35 572.84 1091.95 572.136 1091.54 571.382C1096.31 570.335 1101.16 566.969 1104.4 564.355C1109.42 560.301 1113.09 554.824 1115.65 549.112C1121.65 535.702 1121.17 520.366 1116.68 506.647C1116.41 505.809 1115.1 505.767 1114.85 506.647C1111.4 518.398 1111.09 531.138 1105.67 542.344C1103.5 546.833 1100.48 550.87 1096.76 554.304C1094.87 556.038 1092.96 557.495 1090.65 558.702C1088.17 560 1085.53 560.426 1083.56 562.488C1083.45 562.605 1083.34 562.722 1083.24 562.848C1082.09 562.7 1081.1 562.857 1080.31 563.328L1080.14 563.434L1080.1 563.385C1083.66 561.081 1087.23 558.802 1091.01 556.792C1092.02 556.256 1091.29 554.975 1090.28 555.142L1087.79 555.56C1079.48 556.967 1071 558.568 1063.41 562.077C1054.98 565.98 1046.94 570.486 1039.27 575.587C1024.15 585.62 1010.39 597.473 998.347 610.732C976.137 635.197 960.437 664.613 950.726 695.452C938.589 733.989 933.896 774.469 928.771 814.278C926.322 833.335 924.124 852.426 922.171 871.54L921.644 876.753C920.666 886.587 919.607 896.403 918.611 906.211C916.846 908.841 916.722 911.965 917.764 914.68C916.996 922.627 916.308 930.584 915.761 938.566C914.367 959.162 913.468 979.825 913.079 1000.47C912.692 1021.41 913.495 1042.32 913.75 1063.26C913.855 1072.07 927.916 1072.03 928.137 1063.26C928.7 1040.12 930.448 1016.98 931.691 993.863C932.908 971.299 934.037 948.744 935.492 926.196C935.634 924.051 935.766 921.899 935.89 919.754C937.941 920.497 940.481 920.804 942.636 921.209L943.167 921.313C947.5 922.188 951.842 922.817 956.244 923.199L957.67 923.313C961.663 923.575 982.135 923.993 994.237 921.899C993.275 936.648 992.305 951.398 991.238 966.139C990.021 982.949 989.791 999.785 988.9 1016.61C988.451 1025.02 987.913 1033.37 986.784 1041.73C986.269 1045.54 985.742 1049.35 985.113 1053.14L984.789 1055.03C984.225 1058.29 983.52 1061.08 984.975 1063.98C983.705 1067.71 985.681 1072.41 990.884 1072.03C1024.24 1069.66 1057.68 1068.66 1091.13 1068.52C1148.87 1068.26 1206.59 1070.45 1264.31 1071.96L1279.9 1072.36C1333.97 1073.77 1388.3 1075.27 1442.12 1069.59C1442.23 1076.13 1455.11 1076.05 1454.42 1068.76L1454.26 1067C1453.48 1059.06 1452.48 1050.84 1449.88 1043.2C1452.03 1043.25 1454.2 1043.17 1456.22 1042.53C1459.11 1041.64 1461.88 1040.01 1464.38 1038.41C1469.96 1034.84 1474.67 1030.44 1478.73 1025.36C1486.72 1015.41 1492.02 1003.6 1496.21 991.819C1500.66 979.259 1504.74 966.554 1508.55 953.805L1512.64 939.997C1517.85 922.437 1522.96 904.609 1526.06 886.587C1526.39 887.005 1526.85 887.365 1527.46 887.625C1544.04 894.661 1558.22 880.229 1561.03 865.639C1562.68 857.034 1562.29 848.228 1562.15 839.518L1562.14 838.585C1562 828.552 1561.95 818.517 1561.42 808.491C1559.63 774.972 1551.41 742.491 1538.61 711.266C1526.55 681.874 1511.98 652.25 1493.21 626.143C1484.29 613.747 1474.01 601.837 1461.61 592.414C1448.54 582.489 1433.85 574.941 1418.45 568.794C1402.73 562.513 1386.42 557.546 1370.09 552.855C1352.08 547.68 1333.86 543.232 1315.33 540.108C1313.98 539.881 1312.65 540.258 1311.9 541.431C1311.25 542.461 1310.64 543.517 1310.05 544.589C1307.52 543.081 1303.63 542.712 1301.1 541.975C1293.15 539.639 1278.85 538.24 1272.56 532.913C1265.37 526.844 1261.92 518.751 1258.71 510.395ZM1527.48 877.088C1528.59 878.06 1529.72 879.032 1530.87 879.945C1529.36 879.342 1528 879.744 1526.99 880.631C1527.17 879.45 1527.33 878.269 1527.48 877.088ZM1162.91 650.568C1164.62 651.572 1166.31 652.577 1167.86 653.783C1173.4 658.138 1175.28 665.247 1177.59 671.447L1177.74 671.841C1180.58 679.346 1183.44 686.867 1186.45 694.313C1187.39 696.65 1188.28 699.154 1189.22 701.676C1176.5 713.283 1163.5 724.767 1149.89 735.43C1124.98 754.937 1097.84 771.881 1069 785.684C1054.17 792.787 1038.86 799.253 1023.11 804.27C1017.42 806.079 1011.62 807.67 1005.74 808.851L1005.73 808.767V808.767C1005.7 808.567 1005.36 808.474 1005.32 808.717L1005.29 808.944V808.944C1002.77 809.438 1000.23 809.856 997.676 810.183C992.843 810.795 987.957 811.07 983.079 811.03C980.054 811.004 977.055 810.651 974.073 810.795C987.277 799.496 1000.55 788.281 1013.86 777.116C1039.09 755.942 1064.46 734.936 1089.87 713.963C1101.15 704.649 1112.56 695.448 1123.79 686.071L1134.61 676.996C1144.17 668.967 1153.68 660.809 1161.96 651.631L1162.91 650.568ZM1275.66 712.815C1276.43 711.919 1275.26 710.78 1274.32 711.542C1268.68 716.073 1262.32 718.059 1255.55 720.496C1253.97 721.066 1254.09 723.453 1255.96 723.428C1263.82 723.294 1270.91 718.469 1275.66 712.815ZM1196.7 601.25L1196.14 601.036C1188.19 598.077 1177.88 596.606 1171.62 603.47C1167.09 608.454 1165.94 617.885 1171.84 622.232C1173.26 623.279 1176.27 622.383 1175.37 620.28C1172.78 614.275 1172.23 606.409 1180.39 604.099C1187.47 602.092 1195.75 606.006 1202.19 608.728L1204.03 609.501C1216.6 614.8 1229.09 621.22 1236.79 632.441C1236.99 632.726 1237.53 632.543 1237.4 632.198C1231.25 616.034 1212.43 607.331 1196.7 601.25ZM1289.82 566.634L1292.87 565.536C1300.64 562.782 1310.32 559.984 1315.14 567.915C1316.95 570.879 1318.5 574.549 1319.17 577.963L1319.26 578.427C1319.44 579.481 1319.68 580.613 1318.89 581.425C1317.66 582.698 1313.68 583.317 1312.07 583.871L1301.98 587.351V587.351L1296.94 589.097C1294.64 589.893 1291.68 590.689 1289.99 592.439C1284.06 585.052 1274.63 580.847 1265.73 577.153C1273.75 573.611 1281.52 569.599 1289.82 566.634Z" fill="black"/>
<path fill-rule="evenodd" clip-rule="evenodd" d="M1269.3 158.257C1135.9 152.014 1045.38 252.131 1041.48 292.055C1038.78 319.768 1040.61 356.728 1040.61 381.492C1040.61 394.132 1033.91 432.555 1041.48 450.978C1058.34 491.985 1077.38 524.105 1130.13 524.105C1182.89 524.105 1263.31 498.086 1290.93 464.527C1295.97 458.399 1358.62 413.547 1358.62 378.291C1358.62 303.073 1364.5 162.711 1269.3 158.257Z" fill="#D08B5B"/>
<path fill-rule="evenodd" clip-rule="evenodd" d="M1360.32 77.0165C1352.71 74.755 1347.86 78.0107 1344.4 83.0546C1343.64 82.913 1342.9 82.9222 1342.08 83.1107C1341.87 83.1576 1341.38 83.3343 1341.01 83.4733C1340.72 83.5881 1340.46 83.7271 1340.21 83.8745L1340.06 83.8V83.8C1339.49 83.2078 1338.89 82.6676 1338.24 82.2321C1336.79 81.2538 1335.29 80.969 1333.87 81.17L1333.21 80.9397V80.9397C1327.59 79.0736 1321.48 79.9396 1317.67 84.553C1316.93 85.4442 1316.33 86.4367 1315.82 87.4836C1314.68 87.8405 1313.61 88.3564 1312.68 88.9913C1312.03 88.7006 1311.34 88.4561 1310.61 88.276C1306.46 87.2625 1302.1 88.219 1298.71 90.6413C1297.06 91.8198 1295.85 93.2956 1294.93 94.9808C1293.89 95.2144 1292.85 95.6349 1291.88 96.1994C1291.05 95.8049 1290.2 95.4347 1289.34 95.1809C1286.17 94.2546 1282.77 93.9137 1279.47 94.1474C1272.36 94.649 1265.49 102.375 1270.24 109.01L1270.38 109.211C1270.99 110.011 1271.51 110.838 1272 111.678C1270.3 112.382 1268.66 113.324 1267.14 114.505C1259.74 120.281 1259.07 129.184 1260.46 137.583L1260.52 137.932H1260.5C1256.56 138.288 1253.17 142.198 1255.49 145.876L1255.6 146.048C1258.75 150.674 1261.45 155.784 1264.45 160.652C1272.77 163.506 1280.79 167.02 1288.35 171.279C1293.05 175.2 1297.53 179.346 1301.47 183.959C1303.44 186.262 1305.24 188.7 1306.91 191.228C1305.58 191.835 1303.93 191.804 1302.55 190.581C1290.21 179.7 1275.3 172.064 1259.43 166.947C1258.28 166.577 1257.53 165.882 1257.11 165.06C1250.07 163.149 1242.9 161.668 1235.65 160.619C1233.66 158.809 1231.57 157.078 1229.58 155.276C1227.04 152.976 1223.86 153.01 1221.49 154.454C1220.31 153.943 1219.1 153.491 1217.88 153.085L1217.12 152.839C1216.8 152.74 1216.5 152.625 1216.19 152.535C1207.69 150.063 1199.92 150.98 1191.56 153.012L1190.49 153.277C1186.59 154.26 1184.14 154.103 1180.37 153.198L1179.94 153.094C1175.93 152.099 1171.64 151.362 1167.55 152.41C1163.26 153.506 1160.41 155.945 1157.49 158.892L1157.2 159.188C1155.84 160.576 1155.05 160.727 1153.27 160.693L1151.35 160.639C1144.14 160.451 1137.08 160.741 1131.68 166.049C1129.68 168.012 1127.54 170.79 1126.25 173.326L1126.06 173.704C1126.01 173.827 1125.95 173.93 1125.9 174.023C1125.13 173.904 1123.92 173.437 1123.35 173.331C1115.49 171.88 1108.93 174.116 1103.88 180.01C1102.78 181.299 1101.11 183.832 1099.96 185.224C1099.55 185.551 1099.17 185.901 1098.81 186.269C1096.91 187.42 1094.23 187.348 1092.1 187.751C1086.31 188.848 1080.12 190.944 1077.18 196.188C1075.95 198.377 1075.49 200.771 1074.97 203.163C1073.03 204.38 1071.5 206.134 1070.32 208.033C1068.88 210.338 1068.26 213.162 1066.6 215.338C1065.4 216.92 1063.56 217.764 1061.81 218.731L1061.14 219.104C1055.95 222.044 1051.89 225.306 1050.18 231.066L1050.03 231.579C1049.76 232.461 1048.78 234.979 1049.63 234.601C1048.9 234.984 1047.66 235.119 1047 235.328C1043.4 236.461 1040.27 238.292 1038.35 241.508C1036.89 243.955 1036.63 246.506 1036.21 249.204L1036.03 250.293C1035.99 250.556 1035.93 250.863 1035.88 251.159L1035.82 251.451L1035.81 251.458C1035.16 251.726 1034.52 252.017 1033.89 252.33C1030.91 254.001 1028.87 256.901 1028.87 260.259C1028.87 261.889 1029.4 263.159 1030.18 264.292C1029.55 265.2 1029.06 266.167 1028.69 267.245C1027.97 269.35 1027.92 271.652 1028.16 273.829C1028.46 276.443 1029.16 278.822 1029.99 281.318C1030.31 282.281 1030.44 283.627 1030.92 284.547C1030.03 285.625 1029.5 286.943 1029.67 288.242C1029.9 290.102 1030.79 292.275 1032.56 293.318C1033.43 297.38 1035.29 301.531 1037.13 304.852C1037.34 305.238 1037.59 305.581 1037.87 305.866C1037.62 319.125 1038.64 332.476 1038.71 345.718C1038.79 360.132 1038.47 374.556 1037.94 388.953C1037.05 412.816 1033.88 437.49 1041.28 460.759C1047.34 479.805 1059.47 496.154 1075.73 508.55C1092.38 521.231 1112.46 528.569 1133.78 529.717C1144.62 530.294 1155.65 529.121 1166.14 526.449L1167.26 526.16C1177.41 523.506 1189.17 519.452 1196.64 512.353C1200.58 508.6 1196.6 500.653 1190.81 502.838C1185.08 505.008 1179.94 508.215 1174.26 510.477C1169.18 512.495 1163.88 514.045 1158.51 515.184C1147.75 517.487 1136.33 517.991 1125.39 516.557C1085.89 511.415 1055.11 480.199 1049.03 443.186C1047.35 432.936 1047.38 422.517 1047.5 412.16L1047.62 400.811C1047.72 391.317 1047.75 381.818 1047.39 372.328C1046.92 360.116 1046.02 347.912 1044.8 335.751L1044.17 329.423C1043.42 322.019 1042.57 314.559 1041.11 307.256C1042.31 307.316 1051.73 291.975 1056.96 283.402C1058.87 281.961 1060.48 280.172 1061.1 277.856C1061.23 277.372 1061.3 276.885 1061.34 276.397C1062.48 274.699 1063.67 273.045 1064.94 271.44L1065.21 271.323C1065.43 271.23 1065.59 271.154 1065.69 271.101C1068.45 269.613 1070.75 267.358 1072.33 264.745C1072.86 263.864 1073.29 262.944 1073.65 262.004C1075.9 259.904 1078.25 257.901 1080.72 256.022C1080.96 255.838 1081.21 255.665 1081.46 255.483C1084.61 254.366 1087.37 252.682 1089.38 250.258C1090.22 249.762 1091.07 249.276 1091.93 248.8C1094.49 248.778 1097.08 248.209 1099.6 247.223C1104.21 245.421 1107.9 241.858 1112.53 240.208C1117.43 238.463 1122.59 242.428 1127.8 241.713C1129.13 241.53 1130.45 241.146 1131.67 240.588C1134.6 243.543 1137.71 246.329 1141.15 248.767C1146.12 252.306 1151.22 253.924 1156.99 255.523C1159.85 258.105 1163.05 260.608 1166.91 260.976C1175.85 267.774 1185.4 273.508 1195.46 278.831C1197.08 279.687 1198.69 280.074 1200.21 280.084C1203.37 281.968 1206.81 283.418 1210.45 284.421C1211.59 284.736 1212.76 284.802 1213.92 284.667L1217.08 287.113V287.113C1219.27 288.815 1221.62 289.629 1223.86 289.681C1225.22 290.676 1226.64 291.616 1228.09 292.521C1229.65 293.492 1231.67 293.894 1233.7 293.776C1236.8 296.664 1240.83 296.967 1244.2 295.637C1244.66 295.895 1245.14 296.14 1245.67 296.38C1246.4 296.708 1247.16 296.984 1247.93 297.208C1251.44 300.811 1256.59 302.701 1261.74 302.206C1265.59 304.449 1270.07 305.616 1274.45 305.354C1275.12 308.547 1275.67 311.751 1276.14 314.967L1276.18 317.322C1276.19 317.704 1276.19 318.002 1276.18 318.198L1276.18 318.275C1275.75 328.602 1275.52 338.933 1275.1 349.261L1275.06 350.076C1274.57 359.1 1272.24 375.551 1286.18 375.193C1291.37 375.059 1296.53 371.42 1300.57 368.427L1301.14 368.005C1301.45 367.775 1301.77 367.54 1302.09 367.3C1305.11 366.927 1308.09 366.227 1311.14 366.121C1314.91 365.995 1318.87 366.364 1322.54 367.176C1329.02 368.608 1335.29 371.415 1339.51 376.498C1339.88 376.942 1340.22 377.411 1340.55 377.88C1340.85 378.844 1341.36 379.731 1342.04 380.502C1346.03 389.054 1343.73 400.353 1339.31 408.175C1334.05 417.493 1325.72 423.935 1315.24 427.18L1314.72 427.339C1307.56 429.467 1304.82 433.587 1300.93 439.316C1297.29 444.694 1293.11 449.702 1288.62 454.46C1279.93 463.665 1267.74 471.262 1262.69 482.912C1261.67 485.258 1264.59 487.468 1266.85 486.866C1275.72 484.496 1281.93 478.491 1288.37 472.519C1292.83 468.383 1297.12 464.081 1301.14 459.562C1301.99 459.933 1302.92 460.183 1303.88 460.295C1308.15 460.791 1312.56 460.585 1316.29 458.395C1318.01 458.545 1319.81 457.976 1321.14 456.814C1322.36 455.745 1323.42 454.59 1324.31 453.359C1325.66 453.472 1326.99 453.507 1328.26 453.306C1328.87 453.252 1329.47 453.099 1330.01 452.847C1331.02 452.468 1331.97 451.883 1332.85 450.986C1334.63 449.169 1335.31 446.601 1334.99 444.16C1335.34 444.09 1335.69 444.003 1336.03 443.892C1338.4 443.129 1340.23 441.614 1341.39 439.552C1343.48 438.439 1345.35 436.929 1346.77 435.326C1348.51 433.375 1349.81 431.177 1350.58 428.749C1351.37 428.398 1352.14 427.992 1352.88 427.516C1358.17 424.113 1361.19 417.724 1359.12 411.816L1359.05 411.631C1358.94 411.365 1358.75 410.912 1358.52 410.4C1358.55 409.984 1358.59 409.567 1358.61 409.15L1358.68 407.892V407.892L1359.74 407.464V407.464C1365.02 405.466 1368.59 402.768 1369.23 397.114C1369.36 395.944 1368.88 394.752 1368.13 393.755L1368.13 393.442V393.442C1368.48 393.272 1368.8 393.099 1369.09 392.925C1371.97 391.175 1373.74 388.039 1373.54 384.796C1373.36 381.84 1371.64 379.483 1369.7 377.304L1369.15 376.693C1369.1 376.643 1369.05 376.588 1369 376.529L1370.28 376.145C1371.11 375.894 1371.87 375.644 1372.41 375.353C1374.53 374.224 1376.32 372.699 1377.43 370.761C1377.59 370.521 1377.75 370.284 1377.9 370.028C1379.33 367.548 1379.52 364.37 1378.6 361.708C1378.49 361.394 1378.35 361.098 1378.2 360.804C1382.09 359.499 1385.09 356.802 1385.45 351.832C1385.59 349.877 1385.14 347.93 1384.16 346.262C1384.38 345.139 1384.42 343.975 1384.28 342.823C1385.65 341.593 1386.72 340.11 1387.19 338.302C1388.09 334.885 1386.44 331.635 1384 328.654C1384.9 326.297 1384.95 323.637 1383.92 321.265C1384.32 320.08 1384.54 318.828 1384.55 317.542C1384.58 314.696 1383.66 312.318 1382.17 310.295C1384.26 307.861 1385.26 304.626 1384.02 301.595C1383.14 299.441 1382.14 297.47 1380.98 295.644C1381.59 294.255 1381.94 292.7 1381.94 290.959C1381.94 287.826 1380.71 285.344 1378.82 283.313C1379.64 279.604 1377.97 275.086 1374.34 273.453C1372.97 272.836 1371.14 272.193 1369.12 271.692C1368.36 269.439 1367.57 267.195 1366.74 264.967C1365.42 261.46 1364 258.002 1362.5 254.584C1363.37 255.303 1364.27 255.974 1365.21 256.582C1368.17 260.165 1372.1 263.269 1375.4 265.126C1381.94 268.808 1389.42 266.624 1392.65 260.463C1395.69 262.619 1399.33 263.896 1403.21 263.459C1407.62 262.964 1411.65 260.249 1412.75 256.013C1412.91 255.4 1413 254.738 1413.01 254.071C1415.54 255.783 1418.18 257.359 1421.08 258.261C1424.78 259.41 1428.55 256.653 1429.04 253.219C1429.23 251.858 1428.96 250.655 1428.39 249.64L1428.75 249.504C1428.81 249.481 1428.87 249.456 1428.93 249.429C1430.87 248.566 1432.37 246.983 1433.09 245.157C1437.28 246.701 1442.09 244.891 1443.42 240.502C1445 235.284 1445.1 229.998 1443.86 224.915C1448.3 221.841 1451.2 216.673 1451.69 211.271C1452.05 207.393 1451.08 203.813 1449.36 200.503C1453.57 199.007 1455.01 193.764 1453.02 189.987C1455.67 188.541 1457.4 185.476 1457.44 182.493C1458.62 180.784 1459 178.584 1458.02 176.118C1456.72 172.869 1454.08 170.151 1451.06 168.02C1452.38 165.835 1453.36 163.453 1453.97 160.992C1456.47 160.294 1458.49 158.366 1458.9 155.47C1459.42 151.84 1456.91 148.763 1453.53 147.951C1453.15 146.845 1452.7 145.764 1452.13 144.725C1453.8 140.956 1453.56 136.19 1451.4 132.069C1449.49 128.426 1446.38 126.198 1442.64 124.657C1443.59 121.558 1442.33 118.467 1439.17 116.164C1435.3 113.349 1431.05 111.197 1426.6 109.677C1426.99 104.632 1424.78 99.466 1419.54 97.7071C1418.14 97.2372 1416.68 97.0638 1415.2 97.0697C1414.12 94.8442 1412.33 93.0351 1409.99 91.4336C1406.44 89.0114 1399.82 90.4912 1397.85 94.2898L1397.76 94.4849C1397.66 94.7002 1397.55 94.897 1397.45 95.1056C1397.05 93.2612 1396.12 91.5191 1394.64 90.091C1390.91 86.5204 1386.99 86.4534 1383.21 87.9803C1382.51 86.3437 1381.67 84.7875 1380.65 83.3645C1376.95 78.2017 1370.82 77.5442 1366.34 80.34C1364.54 78.8365 1362.54 77.6773 1360.32 77.0165ZM1333.82 387.479C1326.35 384.698 1317.3 385.52 1309.92 388.191L1309.38 388.391C1302.86 390.842 1292.28 396.294 1291 403.267C1290.34 406.878 1293.95 410.001 1297.62 408.101C1300.8 406.45 1302.59 403.125 1305.12 400.713C1307.63 398.326 1310.44 396.408 1313.5 394.724C1319.89 391.215 1326.61 389.849 1333.82 388.837C1334.63 388.728 1334.41 387.697 1333.82 387.479Z" fill="black"/>
<path fill-rule="evenodd" clip-rule="evenodd" d="M1131.34 462.346C1137.27 460.049 1142.56 456.217 1146.43 451.323C1147.77 449.621 1148.12 447.825 1147.84 446.181C1147.52 444.333 1146.37 442.659 1144.8 441.535C1143.23 440.408 1141.26 439.853 1139.35 440.136C1137.7 440.382 1136.05 441.243 1134.74 443.027L1134.47 443.384C1132.17 446.338 1129.18 448.762 1125.76 450.324C1122.47 451.83 1118.79 452.533 1114.98 452.124C1107.73 451.346 1102.73 447.621 1097.41 442.562C1096.76 441.924 1096.1 441.265 1095.43 440.596C1095.02 439.989 1094.44 439.599 1093.79 439.394C1093.08 439.167 1092.27 439.18 1091.52 439.426C1090.81 439.663 1090.17 440.112 1089.74 440.709C1089.33 441.277 1089.1 441.979 1089.18 442.786C1089.66 448.029 1092.55 452.707 1096.65 456.381C1101.2 460.461 1107.24 463.284 1112.92 464.274C1119.18 465.365 1125.56 464.583 1131.34 462.346V462.346ZM1109.97 381.47C1103.31 385.314 1093.16 394.279 1100.33 403.81C1108.76 412.214 1120.9 402.578 1126.89 398.221C1132.44 394.843 1138.67 403.529 1133.52 407.473C1090.28 437.873 1072.73 382.475 1106.6 376.95C1110.33 376.341 1111.72 380.281 1109.97 381.47ZM1187.46 346.107C1186.72 337.433 1172.81 335.463 1171.43 344.047C1170.19 351.735 1171.65 358.799 1175.29 365.721C1178.78 372.335 1187.54 369.249 1188.2 363.227C1189.09 355.155 1187.92 351.503 1187.46 346.107ZM1081.56 342.267C1079.62 339.855 1076.82 338.208 1073.46 339.138C1062.98 342.047 1066.07 356.18 1069.75 363.059C1071.75 366.794 1078.22 367.742 1081.14 364.452C1085.9 359.089 1088.18 348.377 1082.13 343.093C1081.96 342.82 1081.78 342.545 1081.56 342.267ZM1175.44 308.152L1173.78 307.876C1168.66 307.035 1162.29 306.227 1158.67 310.137C1156.75 312.211 1156.09 316.066 1158.67 318.051C1163.21 321.544 1168.24 320.19 1173.68 320.486C1178.17 320.73 1182.48 321.435 1186.81 322.609C1196.29 325.183 1204.02 329.882 1212.12 335.041C1213.18 335.718 1214.27 334.427 1213.76 333.483C1209.08 324.787 1200.02 317.643 1190.95 313.288C1186.1 310.964 1180.8 309.036 1175.44 308.152ZM1091.11 304.256L1089.85 304.502C1076.05 307.24 1058.13 312.709 1051.6 325.573C1051.35 327.392 1051.62 327.782 1051.83 328.037L1051.9 328.122C1052.08 328.339 1052.22 328.639 1053.05 328.887C1053.28 328.835 1053.51 328.779 1053.75 328.721C1056.74 327.976 1059.11 326.949 1061.4 325.884L1063.89 324.721C1066.77 323.378 1069.68 322.084 1072.77 321.128C1079.35 319.09 1086.12 317.654 1092.99 316.887C1094.48 316.721 1095.92 316.243 1097.05 315.425C1098.13 314.648 1098.95 313.572 1099.32 312.143C1099.81 310.292 1099.67 308.892 1098.62 307.222C1097.84 305.969 1096.71 305.1 1095.42 304.601C1094.1 304.092 1092.6 303.972 1091.11 304.256Z" fill="black"/>
<path fill-rule="evenodd" clip-rule="evenodd" d="M332.611 523.736C351.296 510.132 360.562 487.858 367.533 484.067C372.662 481.277 372.569 462.029 382.85 455.217C396.647 446.075 440.613 439.277 456.609 438.006C471.962 436.786 498.666 439.349 513.071 444.973C537.093 454.351 546.674 472.241 557.253 495.288C557.253 495.288 319.774 533.083 332.611 523.736Z" fill="#EDB98A"/>
<path fill-rule="evenodd" clip-rule="evenodd" d="M681.079 539.63H301.403L169.985 656.579L111.655 1148.14L194.621 1173.98L707.248 1182.55L867.347 1137.27L877.336 795.107L681.079 539.63Z" fill="#78E185"/>
<path fill-rule="evenodd" clip-rule="evenodd" d="M165.041 1058.84C167.686 1057.52 170.443 1056.01 173.463 1055.9C178.65 1055.72 178.657 1047.65 173.463 1047.83C168.932 1047.99 164.954 1049.88 160.967 1051.87C156.315 1054.19 160.407 1061.15 165.041 1058.84M173.463 831.6C169.923 831.603 166.355 832.05 163.636 834.527C162.02 836 162.148 838.746 163.636 840.235C165.229 841.827 167.733 841.703 169.344 840.235C168.818 840.713 169.339 840.24 169.53 840.134C169.575 840.109 169.6 840.092 169.612 840.081C169.653 840.071 169.693 840.063 169.759 840.046C170.18 839.94 170.597 839.836 171.024 839.759C171.031 839.779 171.925 839.7 172.134 839.692C172.578 839.675 173.02 839.673 173.463 839.673C175.652 839.672 177.498 837.828 177.498 835.637C177.498 833.457 175.644 831.599 173.463 831.6M211.409 922.156C212.565 927.227 220.344 925.067 219.191 920.009C217.514 912.656 217.82 905.122 219.191 897.742C220.135 892.656 212.356 890.495 211.409 895.596C209.765 904.449 209.397 913.332 211.409 922.156M221.602 632.02C227.613 630.592 233.557 630.423 239.705 630.421C244.906 630.419 244.898 622.346 239.705 622.348C232.848 622.35 226.155 622.644 219.456 624.236C214.398 625.438 216.553 633.219 221.602 632.02M241.742 828.66C245.227 826.916 248.715 825.172 252.2 823.428C256.853 821.102 252.76 814.141 248.127 816.457L237.668 821.69C233.018 824.016 237.109 830.977 241.742 828.66M243.193 987.639C247.615 994.016 253.832 997.978 261.293 999.957C266.327 1001.29 268.456 993.503 263.439 992.172C258.104 990.758 253.363 988.181 250.162 983.565C247.22 979.32 240.227 983.361 243.193 987.639M271.08 703.403C272.276 701.167 274.077 700.222 276.312 700.172C281.506 700.053 281.507 691.98 276.312 692.099C271.218 692.214 266.546 694.773 264.112 699.329C261.662 703.914 268.631 707.988 271.08 703.403M322.268 758.278C323.715 759.854 326.521 759.815 327.975 758.278C328.866 757.337 329.615 756.287 330.204 755.135C330.428 754.698 330.638 754.253 330.885 753.828C330.995 753.64 331.117 753.452 331.242 753.27C331.284 753.233 331.372 753.142 331.463 753.046C333.013 751.407 332.974 748.986 331.463 747.338C330.015 745.761 327.21 745.801 325.755 747.338C324.865 748.278 324.116 749.329 323.527 750.48C323.303 750.917 323.093 751.362 322.845 751.788C322.736 751.977 322.613 752.163 322.488 752.345C322.446 752.382 322.359 752.473 322.268 752.569C320.717 754.209 320.756 756.63 322.268 758.278M326.572 877.486C331.828 879.891 337.592 879.891 342.848 877.486C344.838 876.574 345.311 873.699 344.295 871.963C343.118 869.95 340.755 869.608 338.774 870.514C336.391 871.605 333.025 871.604 330.645 870.514C328.655 869.604 326.315 869.927 325.124 871.963C324.102 873.71 324.59 876.578 326.572 877.486M340.908 961.864C341.811 964.003 343.761 965.139 346.041 965.226C348.3 965.311 349.981 963.307 350.076 961.189C350.137 959.821 349.397 958.651 348.335 957.927C348.334 957.852 348.332 957.777 348.332 957.702C348.331 955.439 346.484 953.763 344.297 953.665C342.119 953.567 340.26 955.59 340.261 957.702C340.262 959.126 340.35 960.54 340.908 961.864M361.73 1096.01C368.17 1096.11 374.463 1097.65 380.904 1097.75C386.109 1097.84 386.092 1089.76 380.904 1089.68C374.464 1089.57 368.171 1088.04 361.73 1087.94C356.525 1087.85 356.542 1095.92 361.73 1096.01M388.511 578.668C392.281 582.261 396.938 584.031 401.53 586.275C406.183 588.549 410.269 581.585 405.604 579.304C401.714 577.403 397.407 575.998 394.217 572.961C390.454 569.375 384.742 575.078 388.511 578.668M398.631 671.72C401.276 670.4 404.033 668.889 407.052 668.784C412.241 668.602 412.248 660.529 407.052 660.711C402.523 660.868 398.544 662.758 394.557 664.749C389.904 667.072 393.996 674.033 398.631 671.72M447.145 1045.18C448.34 1042.95 450.14 1042 452.376 1041.95C457.57 1041.83 457.572 1033.76 452.376 1033.88C447.281 1033.99 442.61 1036.55 440.175 1041.11C437.726 1045.69 444.695 1049.77 447.145 1045.18M463.946 869.879C465.552 868.404 465.44 865.666 463.946 864.171C462.203 862.427 460.459 860.684 458.715 858.94C457.121 857.344 454.62 857.46 453.009 858.94C451.403 860.414 451.515 863.153 453.009 864.648C454.753 866.392 456.496 868.135 458.239 869.879C459.835 871.475 462.335 871.358 463.946 869.879M483.755 1143.09C489.576 1142.96 495.034 1141.28 500.516 1139.46C505.428 1137.82 503.309 1130.03 498.37 1131.67C493.606 1133.26 488.82 1134.9 483.755 1135.02C478.56 1135.14 478.558 1143.21 483.755 1143.09M509.903 970.457C515.163 970.311 519.526 967.631 523.215 964.043C526.946 960.414 521.234 954.71 517.508 958.335C515.397 960.388 512.96 962.299 509.903 962.384C504.71 962.528 504.706 970.601 509.903 970.457M493.665 748.448C493.601 750.597 492.694 752.9 491.36 754.313C487.794 758.091 493.494 763.807 497.067 760.022C500.014 756.899 501.611 752.72 501.735 748.448C501.885 743.243 493.813 743.265 493.665 748.448M555.223 572.621C556.912 569.313 559.125 565.434 562.492 563.606C567.064 561.125 562.985 554.157 558.418 556.635C553.842 559.119 550.568 564.016 548.254 568.546C545.894 573.169 552.861 577.249 555.223 572.621M565.684 656.577C567.557 656.524 569.415 656.203 571.221 655.714C571.993 655.504 572.755 655.263 573.528 655.053C573.859 654.963 575.264 654.787 574.401 654.834C576.586 654.717 578.436 653.08 578.436 650.797C578.436 648.699 576.58 646.644 574.401 646.761C571.405 646.921 568.682 648.42 565.684 648.504C560.494 648.651 560.49 656.724 565.684 656.577M591.833 785.616H600.549C605.75 785.616 605.741 777.543 600.549 777.543H591.833C586.631 777.543 586.64 785.616 591.833 785.616M601.999 1142.54C604.642 1143.86 607.758 1145.12 609.898 1147.14C613.673 1150.71 619.387 1145.01 615.605 1141.43C612.878 1138.85 609.392 1137.23 606.072 1135.57C604.116 1134.59 601.711 1135.03 600.551 1137.02C599.503 1138.81 600.05 1141.56 601.999 1142.54M621.474 1040.54C621.812 1040.44 622.169 1040.38 622.511 1040.33C623.883 1040.14 625.319 1040.21 626.697 1040.21C631.898 1040.21 631.89 1032.13 626.697 1032.14C622.604 1032.14 618.345 1032.19 615.127 1035.06C613.494 1036.52 613.652 1039.29 615.127 1040.77C616.731 1042.37 619.208 1042.22 620.834 1040.77C620.662 1040.92 621.25 1040.6 621.474 1040.54M626.695 903.351C625.523 900.933 625.504 899.357 625.502 896.669C625.498 891.466 617.428 891.474 617.432 896.669C617.434 900.571 618.014 903.893 619.726 907.426C620.681 909.395 623.478 909.909 625.246 908.874C627.23 907.714 627.644 905.311 626.695 903.351M650.029 713.978C654.71 715.57 658.889 717.825 663.011 720.546C667.362 723.418 671.4 716.424 667.084 713.575C662.38 710.47 657.515 708.01 652.175 706.192C647.238 704.513 645.139 712.314 650.029 713.978M677.25 578.107C680.727 578.204 684.317 579.538 687.416 581.044C692.073 583.306 696.16 576.342 691.488 574.073C687.062 571.921 682.218 570.173 677.25 570.034C672.046 569.888 672.068 577.962 677.25 578.107M689.452 940.813C690.82 940.874 691.99 940.135 692.714 939.071C692.79 939.071 692.864 939.069 692.939 939.069C695.201 939.068 696.875 937.22 696.974 935.032C697.072 932.854 695.049 930.995 692.939 930.996C691.514 930.997 690.101 931.084 688.778 931.643C686.64 932.545 685.504 934.495 685.417 936.776C685.331 939.037 687.335 940.718 689.452 940.813M709.299 661.664C714.255 663.284 716.359 655.487 711.444 653.88C705.675 651.994 699.78 650.534 694.011 648.648C689.055 647.028 686.951 654.827 691.867 656.433C697.634 658.318 703.53 659.778 709.299 661.664M727.398 814.041C728.935 818.996 736.722 816.869 735.18 811.895C733.691 807.094 733.585 802.262 733.582 797.274C733.578 792.071 725.508 792.08 725.511 797.274C725.514 802.951 725.705 808.577 727.398 814.041M781.355 996.549C781.649 998.559 783.243 1000.01 785.329 1000.1C787.453 1000.2 789.441 998.177 789.364 996.065C789.216 992.001 785.904 988.689 781.843 988.541C779.583 988.458 777.902 990.456 777.807 992.577C777.715 994.639 779.436 996.248 781.355 996.549M808.662 764.547C812.926 765.971 817.483 767.327 820.826 770.484C824.604 774.05 830.318 768.35 826.533 764.776C822.124 760.613 816.454 758.648 810.806 756.762C805.861 755.111 803.76 762.911 808.662 764.547M827.168 921.376C828.34 923.38 830.714 923.742 832.688 922.824C835.335 921.593 838.258 921.634 841.112 921.631C846.312 921.627 846.304 913.554 841.112 913.558C836.709 913.562 832.648 913.977 828.615 915.853C826.63 916.777 826.147 919.63 827.168 921.376M837.625 1111.7C839.885 1111.79 841.566 1109.79 841.661 1107.67C841.753 1105.61 840.033 1104 838.112 1103.69C837.819 1101.68 836.224 1100.24 834.139 1100.14C832.014 1100.05 830.026 1102.07 830.104 1104.18C830.252 1108.24 833.562 1111.55 837.625 1111.7M102.384 1142.23C103.755 1137.29 106.892 1133.31 109.263 1128.87C110.058 1127.37 110.334 1126.44 110.765 1125.34C111.35 1126.52 112.486 1127.4 114.194 1127.4C117.47 1127.4 121.303 1127.19 124.36 1128.59C126.349 1129.5 128.691 1129.18 129.881 1127.14C130.903 1125.39 130.414 1122.53 128.433 1121.62C123.927 1119.55 119.082 1119.33 114.194 1119.32C112.986 1119.32 112.072 1119.77 111.427 1120.44C109.558 1094.84 109.605 1069.23 111.372 1043.63C113.258 1016.26 117.596 989.435 122.136 962.42C124.334 949.322 127.189 936.092 126.634 922.751C126.079 909.501 120.4 897.15 124.425 883.859C126.039 878.531 128.803 873.647 130.599 868.379C132.526 862.708 132.354 857.107 131.477 851.234C129.671 839.276 126.676 827.459 131.467 815.783C133.585 810.606 137.016 805.985 138.669 800.636C140.727 793.986 140.445 786.629 140.788 779.737C141.484 765.831 141.665 751.834 142.817 737.959C143.33 731.743 144.45 725.849 147.002 720.148C149.454 714.658 153.095 709.663 154.719 703.84C156.333 698.108 156.475 692.064 157.342 686.201C158.25 680.004 159.673 673.899 161.589 667.945C168.994 644.897 182.562 624.189 198.592 606.237C215.631 587.154 235.999 572.784 257.617 559.393C268.985 552.351 280.353 545.309 291.713 538.268C291.955 539.589 292.797 540.803 294.414 541.344C298.681 542.768 303.235 544.123 306.579 547.28C310.356 550.847 316.071 545.146 312.286 541.573C308.338 537.843 303.376 535.88 298.326 534.156C303.502 530.892 308.733 527.512 314.574 525.627C319.69 523.972 327.235 525.415 331.382 521.661C334.639 518.705 335.669 513.225 336.919 509.209C338.483 504.224 339.835 498.966 341.822 494.122C343.174 490.812 345.141 487.634 347.623 485.07C348.712 480.872 350.711 477.038 354.241 474.707C363.481 468.591 374.83 474.666 378.896 483.385C382.255 483.375 385.796 484.112 389.064 484.313C395.783 484.737 402.512 484.929 409.24 484.909C422.405 484.869 435.58 484.011 448.634 482.265C471.978 479.137 494.625 472.83 517.576 467.915C517.707 467.612 517.858 467.31 518.04 467.007C522.983 458.712 535.3 460.114 543.059 463.253C546.387 464.595 549.777 466.29 551.683 469.439C553.701 470.801 555.446 472.456 556.606 474.202C559.007 477.805 560.863 485.07 565.736 485.676C568.944 486.069 572.202 485.454 575.461 485.918C579.536 486.483 583.188 487.916 586.951 489.551C615.601 501.993 645.219 515.829 676.312 520.652C683.604 521.783 691.029 522.953 697.365 527.04C702.509 530.36 706.485 534.921 710.731 539.251C714.867 543.469 718.277 545.336 724.178 546.093C731.341 547.011 737.545 548.989 742.781 554.196C747.129 558.525 749.963 564.055 753.373 569.081C756.845 574.207 761.938 577.093 767.224 580.07C779.723 587.114 791.365 595.621 801.503 605.823C822.86 627.338 835.792 654.988 848.826 681.932C862.919 711.076 876.094 740.573 885.234 771.694C894.192 802.251 899.518 833.685 901.98 865.412C904.573 898.704 904.936 932.126 907.095 965.438C908.174 982.078 908.991 998.739 909.818 1015.39C910.625 1031.84 911.806 1048.32 911.615 1064.79C911.251 1096.62 904.886 1128.56 893.758 1158.37C890.984 1165.79 887.908 1173.11 884.63 1180.31C881.753 1186.64 871.918 1185.93 868.831 1180.31C868.125 1179.02 867.57 1177.69 867.106 1176.34C859.035 1176.41 850.884 1175.78 842.864 1176.53C828.701 1177.85 814.508 1178.59 800.304 1179.46C772.197 1181.21 744.042 1182.37 715.926 1183.98C713.199 1184.13 710.471 1184.29 707.744 1184.45C727.78 1122.42 725.181 1055.35 728.352 990.833C728.607 985.632 720.535 985.663 720.281 990.833C717.098 1055.63 719.808 1122.86 699.064 1185C691.016 1185.54 682.979 1186.21 674.969 1187.18C668.494 1187.96 661.986 1188.88 655.449 1188.56C648.034 1188.2 640.791 1186.51 633.558 1185.03C620.413 1182.36 607.753 1183.57 594.557 1185.22C580.444 1186.98 566.281 1187.96 552.077 1188.58C495.2 1191.07 437.941 1193.34 381.085 1189.54C367.325 1188.62 353.595 1187.33 339.926 1185.57C325.843 1183.76 311.911 1180.73 297.839 1179C283.968 1177.3 271.216 1181.96 257.506 1182.81C243.525 1183.69 229.169 1180.78 215.318 1179.1C210.8 1178.55 206.276 1178.02 201.752 1177.49C207.577 1137.56 210.889 1097.32 214.106 1057.1C214.52 1051.91 206.447 1051.95 206.035 1057.1C202.844 1097 199.606 1136.94 193.79 1176.56C169.806 1173.77 145.799 1170.95 122.064 1166.6C115.305 1165.37 108.587 1163.36 104.542 1157.32C101.546 1152.85 100.94 1147.37 102.384 1142.23" fill="black"/>
<path fill-rule="evenodd" clip-rule="evenodd" d="M284.49 295.423C286.657 276.335 283.852 236.438 283.664 234.014C282.476 218.691 289.639 158.18 303.179 163.755C325.891 145.731 356.143 141.751 384.43 139.85C443.187 135.9 505.694 144.967 551.065 184.606C573.503 205.191 595.347 235.131 593.591 266.305C613.977 295.855 642.717 336.389 617.317 370.934C608.683 381.971 594.961 386.081 584.114 394.44C562.298 412.08 548.611 437.395 526.587 454.929C468.24 507.488 369.166 518.467 311.84 458.686C267.511 415.391 274.679 350.618 282.476 295.423C287.718 258.315 280.262 332.661 284.49 295.423Z" fill="#EDB98A"/>
<path fill-rule="evenodd" clip-rule="evenodd" d="M462.922 58.9047C447.208 55.726 431.072 53.7481 415.024 54.3435L413.787 54.3916C401.713 54.8754 386.422 55.9455 375.889 62.9837C375.283 62.3741 374.308 62.0613 373.424 62.4841C360.907 68.4733 347.14 72.8035 333.961 77.1065C320.842 81.3882 307.231 84.2148 293.481 85.3541C288.308 85.783 283.881 91.3827 287.156 96.4051C287.936 97.6019 288.695 98.8109 289.451 100.023C288.186 99.8907 286.922 99.7544 285.657 99.6263C281.497 99.2065 277.34 103.658 277.587 107.719C277.741 110.273 278.016 112.796 278.422 115.29C276.838 115.257 275.262 115.495 273.74 116.14C266.033 119.402 266.57 128.605 267.147 135.606C267.946 145.322 271.571 155.613 278.302 162.885C273.276 168.117 269.719 174.366 267.597 181.787C266.057 187.206 265.201 192.978 265.624 198.619L265.758 200.308C266.281 206.43 267.321 213.207 271.714 217.611C273.969 219.882 276.747 220.709 279.396 220.447C277.794 234.554 276.767 248.743 275.801 262.881L275.348 269.638C273.192 302.314 271.572 335.202 271.996 367.931C272.389 398.518 278.418 428.207 297.132 453.042C314.177 475.656 338.648 492.327 366.331 498.665C381.25 502.085 396.481 502.328 411.581 500.148C418.901 499.088 426.269 497.464 433.216 494.9C440.906 492.055 446.432 487.867 451.607 481.59C454.054 478.613 452.876 472.276 448.003 472.871C440.633 473.767 433.904 474.847 426.839 477.032L425.827 477.352C418.789 479.612 411.501 481.297 404.143 482.014C389.072 483.477 373.772 482.004 359.335 477.422C335.829 469.955 315.585 453.314 302.609 432.405C287.207 407.621 285.465 379.486 285.688 350.988C285.926 319.717 286.941 288.427 288.597 257.188L288.879 251.982C289.755 235.907 290.6 219.821 291.344 203.735C291.576 198.69 291.928 193.604 292.563 188.568C298.371 185.157 303.575 180.455 306.968 174.652C313.783 177.478 320.95 179.516 327.545 181.141C342.82 184.907 358.68 185.821 374.228 183.463C378.421 185.2 382.699 186.727 387.042 188.04C388.215 188.562 389.389 189.075 390.562 189.577C401.032 194.068 411.653 197.872 422.705 200.658L425.42 201.336C431.237 202.774 437.554 204.189 443.745 204.634C444.761 205.027 445.859 205.36 447.058 205.653C452.694 207.025 458.544 207.459 464.321 206.975C469.949 206.5 474.016 200.799 470.916 195.461C468.651 191.565 466.365 187.68 464.059 183.805C472.082 187.155 480.367 189.941 488.723 192.302C497.159 194.684 505.715 196.692 514.283 198.538C518.864 199.517 523.463 200.385 528.033 201.364C531.305 202.06 536.328 202.424 538.997 204.583C541.946 206.955 542.781 212.485 543.9 215.895C545.369 220.326 546.748 224.776 548.007 229.277C550.512 238.258 552.566 247.37 554.157 256.574C555.747 265.787 556.815 275.091 557.409 284.426C558.002 293.75 557.741 303.135 558.697 312.419C559.211 317.344 564.485 319.876 568.381 316.435C568.838 316.032 569.299 315.624 569.755 315.211L570.435 314.589C573.768 311.561 576.999 308.352 579.666 304.74C580.149 304.073 580.612 303.377 581.045 302.671C581.115 302.671 581.176 302.651 581.246 302.6L581.986 302.042C590.127 295.968 603.729 288.048 611.668 298.14C614.198 301.355 615.493 305.449 616.568 309.398L618.454 316.466C619.674 321.081 620.822 325.721 621.494 330.442C623.014 341.018 622.249 353.208 614.99 361.685C612.091 365.076 608.094 367.497 603.636 368.133C601.148 368.476 598.692 368.052 596.226 367.74C593.719 367.427 591.304 367.931 588.796 367.689C584.81 367.296 583.068 372.079 584.558 375.086C585.364 376.701 586.311 378.093 587.387 379.274C586.522 380.021 585.696 380.828 584.9 381.676C582.545 382.433 580.432 384.057 578.85 386.207C577.572 387.942 576.908 389.83 576.797 391.818C576.657 392.312 576.536 392.817 576.424 393.331L574.265 396.845C573.79 397.616 573.316 398.377 572.841 399.124C567.345 407.802 561.244 415.149 553.663 422.071C546.365 428.732 538.443 434.696 531.587 441.84L530.779 442.689C524.387 449.441 517.65 457.614 520.151 467.432C520.795 469.955 524.31 471.771 526.604 470.066C533.983 464.576 537.698 455.877 543.959 449.217C550.403 442.355 557.54 436.189 564.002 429.347C570.113 422.889 574.935 415.573 578.568 407.52C580.019 409.124 582.132 410.265 585.061 410.709C590.095 411.465 594.787 408.509 596.981 404.139C598.391 404.765 599.829 405.33 601.28 405.774C608.911 408.115 613.711 399.608 610.832 393.321C609.293 389.951 607.37 387.024 604.984 384.562C612.444 383.533 620.034 379.668 624.937 374.844C637.237 362.724 638.929 344.509 636.16 328.313C634.691 319.725 632.155 311.036 628.862 302.974C628.289 301.571 627.674 300.158 627.001 298.765C627.373 298.755 627.756 298.594 627.997 298.281C630.222 295.233 632.929 292.741 634.581 289.33C636.101 286.202 637.791 283.033 638.99 279.774C641.455 273.103 642.663 265.575 643.469 258.521C645.13 244.081 644.486 229.731 642.281 215.381C638.527 190.94 629.459 167.55 616.099 147.026C616.827 146.643 617.524 146.181 618.173 145.634L618.494 145.353L619.016 144.881C622.828 141.423 622.499 134.941 619.016 131.438L617.916 130.333C616.523 128.946 615.321 127.846 613.071 126.336C612.739 126.113 612.4 125.903 612.056 125.707C613.234 123.526 613.643 120.974 612.823 118.16C609.964 108.355 595.89 108.702 586.97 112.978C577.102 104.149 566.159 96.4848 554.299 90.2787C526.05 75.505 494.109 65.2017 462.922 58.9047ZM608.94 317.142C603.665 315.416 596.658 319.039 591.917 321.219C585.907 323.984 580.793 328.071 575.84 332.39C573.374 334.549 572.932 338.081 573.545 341.099C573.606 341.401 573.666 341.714 573.737 342.027C574.391 345.246 577.975 347.779 581.146 347.688C587.78 347.507 590.94 341.765 594.696 336.901C595.138 337.688 595.692 338.414 596.377 338.959L596.84 339.322C598.399 340.512 600.117 341.463 602.176 341.371C603.635 341.3 605.034 340.927 606.323 340.251C609.545 338.545 610.963 334.368 610.088 330.967C609.545 328.827 608.296 327.152 606.665 325.992L607.273 325.575C608.574 324.668 609.76 323.711 610.685 322.299L610.893 321.965H610.813C611.82 320.23 611.164 317.868 608.94 317.142Z" fill="black"/>
<path fill-rule="evenodd" clip-rule="evenodd" d="M359.778 418.695C367.21 420.848 375.187 421.04 382.762 418.817C389.632 416.8 396.687 412.361 401.744 406.487C406.236 401.269 409.145 394.929 409.031 388.16C409.018 387.387 408.742 386.742 408.317 386.241C407.859 385.702 407.22 385.332 406.535 385.171C405.831 385.006 405.087 385.064 404.453 385.352C403.879 385.613 403.388 386.056 403.08 386.703C402.303 387.724 401.529 388.731 400.752 389.709C394.503 397.427 388.452 403.195 379.056 405.264C373.958 406.386 368.867 405.888 364.195 404.176C359.194 402.342 354.674 399.118 351.131 394.993C349.531 393.128 347.641 392.367 345.792 392.354C343.698 392.34 341.628 393.313 340.069 394.869C338.536 396.399 337.509 398.477 337.416 400.651C337.335 402.559 337.957 404.552 339.612 406.331C345.065 412.188 352.132 416.479 359.778 418.695ZM360.008 322.028C352.39 326.66 340.783 337.461 348.978 348.944C358.624 359.069 372.513 347.46 379.357 342.21C385.703 338.141 392.833 348.606 386.945 353.357C337.49 389.984 317.42 323.239 356.155 316.582C360.42 315.848 362.004 320.595 360.008 322.028ZM431.269 301.647C433.717 300.08 436.597 299.543 439.789 300.995C442.284 302.13 446.659 305.913 449.704 310.885C451.787 314.287 453.264 318.278 452.956 322.436C452.885 323.401 453.241 324.113 453.804 324.639C454.248 325.055 454.89 325.36 455.644 325.456C456.283 325.537 457 325.464 457.582 325.282C458.69 324.936 459.276 324.217 459.497 323.63C461.629 317.967 460.711 311.647 458.321 305.945C455.097 298.25 449.241 291.805 445.405 289.727C438.84 286.17 431.095 286.006 424.521 289.63C418.925 292.714 415.425 297.694 411.945 302.77C411.205 303.849 410.471 304.92 409.712 305.972C408.191 308.081 408.04 310.172 408.629 311.965C409.281 313.952 410.945 315.628 413.025 316.506C414.948 317.317 417.18 317.431 419.155 316.598C420.823 315.894 422.354 314.522 423.323 312.194C424.955 308.273 427.673 303.947 431.269 301.647V301.647ZM306.918 310.37C308.595 311.244 309.907 311.507 311.767 310.95C312.795 310.641 313.812 310.048 314.608 309.252C315.397 308.463 315.966 307.482 316.187 306.393C316.731 303.707 318.201 301.192 320.295 299.552C322.085 298.151 324.344 297.408 326.85 297.827C329.554 298.279 332.13 300.014 333.904 302.059C334.497 302.743 334.962 303.52 335.43 304.293C336.304 305.736 337.154 307.078 338.359 308.139C338.816 308.542 339.505 308.821 340.172 308.821C340.443 308.821 340.718 308.777 340.98 308.695C343.672 305.993 344.189 303.943 344.103 301.91C344.012 299.778 343.171 297.619 341.813 295.605C338.628 290.881 332.58 287.007 328.499 286.129C322.909 284.928 317.359 286.37 312.908 289.493C308.329 292.706 304.936 297.695 303.878 303.317C303.624 304.671 303.732 306.132 304.247 307.399C304.751 308.638 305.629 309.698 306.918 310.37ZM418.942 251.273C422.296 254.542 426.266 255.049 430.283 255.499C432.514 255.752 434.296 255.955 436.049 256.351C440.867 257.439 445.63 259.078 449.975 261.438C454.517 263.905 459.468 266.88 463.029 270.692C463.876 271.599 464.674 272.55 465.473 273.504C466.202 274.374 466.904 275.211 467.644 276.019C468.494 276.946 469.301 277.918 470.104 278.887C470.6 279.705 470.698 279.906 470.798 280.116C470.949 280.431 471.124 280.783 471.324 281.161C471.597 281.678 471.918 282.244 472.254 282.758C472.812 283.697 473.112 283.955 473.371 284.071C473.801 284.262 474.208 284.357 474.604 284.305C474.975 284.258 475.324 284.079 475.669 283.788C477.391 282.332 477.899 279.944 477.847 277.408C477.768 273.561 476.349 269.301 475.041 266.682C472 260.597 467.783 254.272 462.712 249.73C456.925 244.547 450.595 240.622 443.323 237.918C438.805 236.237 433.573 234.694 428.65 234.889C425.106 235.029 421.723 236.083 418.929 238.714C417.214 240.329 416.391 242.627 416.391 244.923C416.391 247.265 417.246 249.62 418.942 251.273ZM300.096 281.209C300.31 281.559 300.605 281.8 300.933 281.945C301.278 282.096 301.662 282.14 302.031 282.078C302.398 282.016 302.748 281.849 303.025 281.595C303.29 281.351 303.492 281.027 303.583 280.631C305.81 270.847 310.134 263.567 319.363 258.873C323.903 256.564 329.124 255.097 334.066 253.927C335.502 253.587 337.02 253.366 338.548 253.143C343.338 252.444 348.162 251.642 351.284 247.77C353.166 245.437 353.955 242.453 353.509 239.725C353.089 237.156 351.588 234.8 348.86 233.389C342.068 229.876 333.628 233.323 326.769 236.259C326.261 236.477 325.761 236.691 325.272 236.897C318.565 239.729 312.448 243.467 307.42 248.813C303.43 253.055 299.733 259.325 298.244 265.775C297.005 271.141 297.297 276.619 300.096 281.209Z" fill="black"/>
<path fill-rule="evenodd" clip-rule="evenodd" d="M338.641 434.994C348.036 426.621 358.567 409.788 372.064 423.107C375.402 426.87 376.754 435.306 381.859 436.961C388.638 439.161 395.356 431.986 397.666 426.476C407.119 395.862 368.044 387.465 345.784 392.411C334.909 396.879 326.899 414.861 326.415 424.246C326.102 430.553 331.439 439.827 338.641 434.994M267.763 387.807C267.855 387.4 267.983 387.033 268.137 386.698C272.292 385.127 275.58 386.73 277.612 389.723C277.545 390.467 277.323 391.22 277.183 391.958C278.751 395.262 280.165 399.35 282.29 402.205C282.709 402.237 283.144 402.193 283.562 402.072C318.782 405.751 301.587 368.888 337.31 359.732C364.924 355.175 414.833 360.395 427.86 389.147C438.134 435.07 490.372 403.071 507.524 379.188C525.825 357.452 537.658 330.891 549.068 305.118C551.479 299.664 559.003 303.564 558.185 308.797C568.731 329.96 568.38 355.38 570.992 378.564C575.435 424.817 579.763 489.682 536.802 517.925C480.826 581.215 341.048 603.549 276.487 545.397C254.138 497.332 256.893 438.694 267.763 387.807" fill="black"/>
<path fill-rule="evenodd" clip-rule="evenodd" d="M304.529 246.982C280.85 246.982 267.338 252.075 262.386 252.472L262.237 252.483C260.178 252.615 258.33 252.787 256.392 253.537C249.264 256.283 248.103 263.761 252.263 268.474C252.554 278.226 251.272 289.62 253.472 299.404C256.186 340.648 275.576 347.608 286.598 350.148C292.131 351.424 298.69 351.932 304.568 350.585C314.595 350.211 324.508 347.071 332.99 341.603C344.802 333.982 353.575 322.269 356.422 308.367C357.772 301.741 358.402 294.844 357.668 288.108L357.559 287.18C361.399 285.343 365.848 284.996 370.434 284.833C372.625 284.755 374.785 284.685 376.883 284.779C378.933 285.008 380.959 285.313 382.992 285.728C385.211 286.398 387.307 287.503 389.242 289.254L389.375 291.81C389.739 298.194 390.577 304.597 391.869 310.86C393.777 320.101 396.846 328.927 403.379 335.482C405.59 338.785 408.326 341.734 411.647 344.288C423.713 353.58 440.106 356.992 455.15 355.707C485.694 353.1 503.348 328.846 507.417 318.479L507.66 317.851C510.599 310.144 512.942 300.144 522.229 298.488L524.204 298.133C528.442 297.337 532.353 296.229 534.838 292.093C535.927 290.287 536.487 288.267 536.625 286.208C538.074 286.32 539.522 286.426 540.965 286.53C552.474 288.964 621.504 291.029 627.014 291.029C627.014 291.029 637.605 295.488 642.077 292.033C645.176 289.63 646.196 286.428 644.49 282.801C641.915 277.343 630.038 274.06 624.764 273.02C624.764 273.02 539.657 273.727 533.531 272.565C529.741 268.656 522.962 269.191 517.297 268.573C512.607 265.228 506.047 262.988 500.865 261.488C499.809 261.088 498.763 260.701 497.746 260.336C488.246 256.952 478.371 255.159 468.346 254.196C458.008 253.214 447.639 253.658 437.361 255.067C433.03 255.655 428.74 256.415 424.479 257.409C416.85 258.415 409.266 260.072 401.634 262.037L400.107 262.435C392.071 264.542 383.813 266.365 375.494 264.936C368.721 263.781 362.208 261.173 355.963 258.354L355.15 257.985C341.42 251.714 319.977 246.982 304.529 246.982ZM425.305 269.912C430.371 268.797 432.535 276.611 427.452 277.728C423.853 278.52 420.803 280.335 418.742 283.411L418.525 283.745C415.76 288.147 408.768 284.084 411.552 279.653C414.685 274.668 419.553 271.176 425.305 269.912ZM276.924 265.067C278.71 263.809 281.413 264.743 282.449 266.521C283.591 268.479 282.843 270.66 281.17 271.941L281 272.066C279.465 273.148 277.971 275.087 277.783 277.073L277.767 277.322C277.566 282.521 269.488 282.547 269.69 277.322C269.887 272.21 272.846 267.939 276.924 265.067Z" fill="black"/>
<path d="M363.591 840.364C363.591 849.767 361.83 857.821 358.307 864.526C354.813 871.202 350.04 876.315 343.989 879.866C337.966 883.418 331.134 885.193 323.491 885.193C315.849 885.193 309.003 883.418 302.952 879.866C296.929 876.287 292.156 871.159 288.634 864.483C285.139 857.778 283.392 849.739 283.392 840.364C283.392 830.96 285.139 822.92 288.634 816.244C292.156 809.54 296.929 804.412 302.952 800.861C309.003 797.31 315.849 795.534 323.491 795.534C331.134 795.534 337.966 797.31 343.989 800.861C350.04 804.412 354.813 809.54 358.307 816.244C361.83 822.92 363.591 830.96 363.591 840.364ZM347.696 840.364C347.696 833.744 346.659 828.162 344.585 823.616C342.54 819.043 339.699 815.591 336.062 813.261C332.426 810.903 328.236 809.724 323.491 809.724C318.747 809.724 314.557 810.903 310.92 813.261C307.284 815.591 304.429 819.043 302.355 823.616C300.31 828.162 299.287 833.744 299.287 840.364C299.287 846.983 300.31 852.58 302.355 857.153C304.429 861.699 307.284 865.151 310.92 867.509C314.557 869.838 318.747 871.003 323.491 871.003C328.236 871.003 332.426 869.838 336.062 867.509C339.699 865.151 342.54 861.699 344.585 857.153C346.659 852.58 347.696 846.983 347.696 840.364ZM377.856 908.545V818.545H393.026V829.369H393.921C394.717 827.778 395.839 826.088 397.288 824.298C398.737 822.48 400.697 820.932 403.168 819.653C405.64 818.347 408.793 817.693 412.629 817.693C417.685 817.693 422.245 818.986 426.308 821.571C430.398 824.128 433.637 827.92 436.023 832.949C438.438 837.949 439.646 844.085 439.646 851.358C439.646 858.545 438.467 864.653 436.109 869.682C433.751 874.71 430.54 878.545 426.478 881.188C422.415 883.83 417.813 885.151 412.671 885.151C408.921 885.151 405.81 884.526 403.339 883.276C400.867 882.026 398.879 880.52 397.373 878.759C395.896 876.969 394.745 875.278 393.921 873.688H393.282V908.545H377.856ZM392.984 851.273C392.984 855.506 393.58 859.213 394.773 862.395C395.995 865.577 397.742 868.062 400.015 869.852C402.316 871.614 405.1 872.494 408.367 872.494C411.776 872.494 414.631 871.585 416.933 869.767C419.234 867.92 420.967 865.406 422.131 862.224C423.325 859.014 423.921 855.364 423.921 851.273C423.921 847.21 423.339 843.602 422.174 840.449C421.009 837.295 419.276 834.824 416.975 833.034C414.674 831.244 411.805 830.349 408.367 830.349C405.072 830.349 402.273 831.216 399.972 832.949C397.671 834.682 395.924 837.111 394.731 840.236C393.566 843.361 392.984 847.04 392.984 851.273ZM471.691 885.321C467.543 885.321 463.808 884.582 460.484 883.105C457.188 881.599 454.575 879.384 452.643 876.457C450.739 873.531 449.788 869.923 449.788 865.634C449.788 861.94 450.469 858.886 451.833 856.472C453.197 854.057 455.058 852.125 457.415 850.676C459.773 849.227 462.43 848.134 465.384 847.395C468.367 846.628 471.45 846.074 474.631 845.733C478.467 845.335 481.577 844.98 483.964 844.668C486.35 844.327 488.083 843.815 489.163 843.134C490.271 842.423 490.825 841.33 490.825 839.852V839.597C490.825 836.386 489.873 833.901 487.969 832.139C486.066 830.378 483.325 829.497 479.745 829.497C475.967 829.497 472.969 830.321 470.754 831.969C468.566 833.616 467.089 835.562 466.322 837.807L451.918 835.761C453.055 831.784 454.93 828.46 457.543 825.79C460.157 823.091 463.353 821.074 467.131 819.739C470.91 818.375 475.086 817.693 479.66 817.693C482.813 817.693 485.952 818.062 489.077 818.801C492.202 819.54 495.058 820.761 497.643 822.466C500.228 824.142 502.302 826.429 503.864 829.327C505.455 832.224 506.251 835.847 506.251 840.193V884H491.421V875.009H490.91C489.972 876.827 488.651 878.531 486.947 880.122C485.271 881.685 483.154 882.949 480.597 883.915C478.069 884.852 475.1 885.321 471.691 885.321ZM475.697 873.986C478.793 873.986 481.478 873.375 483.751 872.153C486.023 870.903 487.771 869.256 488.992 867.21C490.242 865.165 490.867 862.935 490.867 860.52V852.807C490.384 853.205 489.56 853.574 488.396 853.915C487.259 854.256 485.981 854.554 484.56 854.81C483.14 855.065 481.734 855.293 480.342 855.491C478.95 855.69 477.742 855.861 476.719 856.003C474.418 856.315 472.359 856.827 470.54 857.537C468.722 858.247 467.288 859.241 466.237 860.52C465.185 861.77 464.66 863.389 464.66 865.378C464.66 868.219 465.697 870.364 467.771 871.812C469.844 873.261 472.487 873.986 475.697 873.986ZM563.481 856.472V818.545H578.907V884H563.95V872.366H563.268C561.79 876.031 559.362 879.028 555.981 881.358C552.629 883.687 548.495 884.852 543.58 884.852C539.29 884.852 535.498 883.901 532.202 881.997C528.935 880.065 526.379 877.267 524.532 873.602C522.685 869.909 521.762 865.449 521.762 860.222V818.545H537.188V857.835C537.188 861.983 538.325 865.278 540.597 867.722C542.87 870.165 545.853 871.386 549.546 871.386C551.819 871.386 554.021 870.832 556.151 869.724C558.282 868.616 560.029 866.969 561.393 864.781C562.785 862.565 563.481 859.795 563.481 856.472ZM594.77 884V818.545H609.727V829.455H610.409C611.602 825.676 613.648 822.764 616.545 820.719C619.472 818.645 622.81 817.608 626.56 817.608C627.412 817.608 628.364 817.651 629.415 817.736C630.494 817.793 631.389 817.892 632.099 818.034V832.224C631.446 831.997 630.409 831.798 628.989 831.628C627.597 831.429 626.247 831.33 624.94 831.33C622.128 831.33 619.599 831.94 617.355 833.162C615.139 834.355 613.392 836.017 612.114 838.148C610.835 840.278 610.196 842.736 610.196 845.52V884H594.77Z" fill="#F1F1F1"/>
</g>
<defs>
<clipPath id="clip0_0_240">
<rect width="1598" height="1024" fill="white"/>
</clipPath>
</defs>
</svg>
