<svg width="1199" height="1024" viewBox="0 0 1199 1024" fill="none" xmlns="http://www.w3.org/2000/svg">
<g clip-path="url(#clip0_53_19557)">
<path fill-rule="evenodd" clip-rule="evenodd" d="M438.611 515.736C457.296 502.132 466.562 479.858 473.533 476.067C478.663 473.277 478.569 454.029 488.85 447.217C502.647 438.075 546.614 431.278 562.609 430.006C577.963 428.786 604.667 431.349 619.071 436.973C643.093 446.351 652.674 464.241 663.253 487.288C663.253 487.288 425.774 525.083 438.611 515.736Z" fill="#EDB98A"/>
<path fill-rule="evenodd" clip-rule="evenodd" d="M787.079 531.63H407.403L275.985 648.58L217.655 1140.14L300.621 1165.98L813.248 1174.55L973.347 1129.27L983.336 787.107L787.079 531.63Z" fill="#78E185"/>
<path fill-rule="evenodd" clip-rule="evenodd" d="M271.041 1050.84C273.686 1049.52 276.443 1048.01 279.463 1047.9C284.65 1047.72 284.657 1039.65 279.463 1039.83C274.933 1039.99 270.954 1041.88 266.967 1043.87C262.316 1046.19 266.407 1053.15 271.041 1050.84M279.463 823.6C275.923 823.603 272.355 824.05 269.636 826.527C268.02 828 268.148 830.746 269.636 832.236C271.229 833.827 273.733 833.703 275.344 832.236C274.819 832.713 275.339 832.24 275.53 832.134C275.575 832.109 275.6 832.092 275.613 832.081C275.653 832.071 275.693 832.063 275.759 832.046C276.18 831.94 276.597 831.836 277.024 831.759C277.031 831.779 277.925 831.7 278.135 831.692C278.578 831.675 279.02 831.673 279.463 831.673C281.652 831.672 283.498 829.828 283.498 827.637C283.498 825.457 281.644 823.599 279.463 823.6M317.409 914.156C318.565 919.227 326.344 917.067 325.191 912.009C323.515 904.656 323.82 897.122 325.191 889.742C326.135 884.656 318.357 882.495 317.409 887.597C315.765 896.449 315.397 905.332 317.409 914.156M327.602 624.02C333.613 622.592 339.558 622.423 345.705 622.421C350.907 622.419 350.899 614.346 345.705 614.348C338.848 614.35 332.155 614.644 325.457 616.236C320.398 617.438 322.553 625.219 327.602 624.02M347.742 820.66C351.227 818.916 354.715 817.172 358.2 815.428C362.853 813.102 358.76 806.141 354.128 808.457L343.668 813.69C339.018 816.016 343.11 822.977 347.742 820.66M349.194 979.64C353.615 986.016 359.832 989.978 367.294 991.957C372.327 993.292 374.456 985.503 369.439 984.173C364.104 982.758 359.363 980.181 356.162 975.565C353.22 971.32 346.227 975.361 349.194 979.64M377.08 695.403C378.276 693.167 380.077 692.222 382.313 692.172C387.506 692.053 387.507 683.98 382.313 684.099C377.218 684.214 372.546 686.773 370.112 691.329C367.662 695.914 374.632 699.988 377.08 695.403M428.269 750.278C429.715 751.854 432.521 751.815 433.975 750.278C434.866 749.337 435.615 748.287 436.204 747.135C436.428 746.698 436.639 746.253 436.885 745.829C436.995 745.64 437.117 745.452 437.242 745.27C437.284 745.233 437.372 745.142 437.463 745.046C439.013 743.407 438.974 740.986 437.463 739.338C436.015 737.762 433.21 737.801 431.755 739.338C430.865 740.278 430.116 741.329 429.528 742.48C429.304 742.917 429.093 743.362 428.846 743.788C428.736 743.977 428.614 744.163 428.489 744.345C428.446 744.382 428.359 744.473 428.269 744.569C426.717 746.209 426.756 748.63 428.269 750.278M432.572 869.486C437.828 871.891 443.592 871.891 448.848 869.486C450.839 868.574 451.311 865.699 450.295 863.963C449.119 861.95 446.755 861.608 444.775 862.515C442.391 863.605 439.025 863.604 436.645 862.515C434.655 861.604 432.315 861.927 431.125 863.963C430.103 865.71 430.59 868.578 432.572 869.486M446.908 953.864C447.811 956.003 449.761 957.139 452.041 957.226C454.3 957.311 455.981 955.307 456.076 953.189C456.137 951.821 455.397 950.651 454.335 949.927C454.334 949.852 454.332 949.777 454.332 949.702C454.331 947.439 452.484 945.763 450.297 945.665C448.119 945.567 446.261 947.59 446.262 949.702C446.263 951.126 446.35 952.54 446.908 953.864M467.73 1088.01C474.17 1088.11 480.463 1089.65 486.904 1089.75C492.109 1089.84 492.093 1081.76 486.904 1081.68C480.464 1081.58 474.171 1080.04 467.73 1079.94C462.526 1079.85 462.542 1087.92 467.73 1088.01M494.512 570.668C498.282 574.261 502.938 576.031 507.53 578.275C512.183 580.549 516.27 573.585 511.604 571.304C507.714 569.403 503.407 567.998 500.217 564.961C496.455 561.375 490.742 567.078 494.512 570.668M504.631 663.721C507.276 662.4 510.033 660.889 513.052 660.784C518.241 660.602 518.248 652.529 513.052 652.711C508.523 652.868 504.544 654.758 500.557 656.749C495.904 659.072 499.997 666.033 504.631 663.721M553.145 1037.18C554.34 1034.95 556.14 1034 558.376 1033.95C563.57 1033.83 563.572 1025.76 558.376 1025.88C553.281 1026 548.61 1028.55 546.175 1033.11C543.726 1037.69 550.695 1041.77 553.145 1037.18M569.946 861.879C571.552 860.404 571.44 857.666 569.946 856.171C568.203 854.427 566.459 852.684 564.715 850.94C563.121 849.344 560.621 849.46 559.009 850.94C557.403 852.414 557.515 855.153 559.009 856.648C560.754 858.392 562.496 860.135 564.239 861.879C565.835 863.475 568.335 863.358 569.946 861.879M589.755 1135.09C595.577 1134.96 601.034 1133.28 606.516 1131.46C611.428 1129.82 609.309 1122.03 604.37 1123.67C599.606 1125.26 594.82 1126.9 589.755 1127.02C584.56 1127.14 584.558 1135.21 589.755 1135.09M615.903 962.457C621.163 962.311 625.526 959.631 629.215 956.043C632.947 952.414 627.234 946.71 623.508 950.335C621.397 952.388 618.961 954.299 615.903 954.384C610.711 954.528 610.707 962.601 615.903 962.457M599.665 740.448C599.602 742.597 598.694 744.9 597.36 746.313C593.794 750.091 599.494 755.807 603.067 752.022C606.015 748.899 607.612 744.721 607.736 740.448C607.885 735.243 599.814 735.265 599.665 740.448M661.223 564.621C662.912 561.313 665.125 557.434 668.492 555.606C673.064 553.125 668.985 546.157 664.418 548.635C659.842 551.12 656.568 556.016 654.255 560.546C651.894 565.169 658.861 569.249 661.223 564.621M671.685 648.577C673.557 648.524 675.415 648.203 677.221 647.714C677.993 647.504 678.755 647.263 679.528 647.053C679.859 646.963 681.264 646.787 680.401 646.834C682.586 646.717 684.436 645.08 684.436 642.797C684.436 640.699 682.58 638.644 680.401 638.761C677.406 638.921 674.682 640.42 671.685 640.504C666.494 640.651 666.49 648.724 671.685 648.577M697.833 777.616H706.549C711.75 777.616 711.741 769.543 706.549 769.543H697.833C692.631 769.543 692.641 777.616 697.833 777.616M708 1134.54C710.643 1135.86 713.758 1137.12 715.898 1139.14C719.673 1142.71 725.387 1137.01 721.605 1133.43C718.878 1130.85 715.392 1129.23 712.072 1127.57C710.116 1126.59 707.711 1127.03 706.551 1129.02C705.503 1130.81 706.051 1133.56 708 1134.54M727.474 1032.54C727.812 1032.44 728.17 1032.38 728.512 1032.33C729.883 1032.14 731.319 1032.21 732.697 1032.21C737.898 1032.21 737.89 1024.13 732.697 1024.14C728.604 1024.14 724.345 1024.19 721.127 1027.06C719.494 1028.52 719.652 1031.29 721.127 1032.77C722.731 1034.37 725.208 1034.22 726.834 1032.77C726.662 1032.92 727.251 1032.6 727.474 1032.54M732.695 895.351C731.523 892.933 731.505 891.357 731.503 888.669C731.499 883.466 723.428 883.474 723.432 888.669C723.434 892.571 724.014 895.893 725.726 899.426C726.682 901.395 729.478 901.909 731.246 900.874C733.23 899.714 733.644 897.311 732.695 895.351M756.03 705.978C760.71 707.57 764.889 709.825 769.011 712.546C773.362 715.418 777.4 708.424 773.084 705.575C768.38 702.47 763.515 700.01 758.175 698.192C753.238 696.513 751.139 704.314 756.03 705.978M783.25 570.107C786.727 570.204 790.317 571.538 793.416 573.044C798.074 575.306 802.16 568.342 797.488 566.073C793.062 563.921 788.219 562.174 783.25 562.034C778.046 561.888 778.068 569.962 783.25 570.107M795.453 932.813C796.821 932.874 797.99 932.135 798.714 931.071C798.79 931.071 798.864 931.069 798.939 931.069C801.201 931.068 802.875 929.22 802.974 927.032C803.072 924.854 801.049 922.995 798.939 922.996C797.515 922.997 796.101 923.084 794.778 923.643C792.64 924.545 791.504 926.496 791.417 928.776C791.332 931.037 793.335 932.718 795.453 932.813M815.299 653.665C820.255 655.284 822.359 647.487 817.445 645.88C811.675 643.994 805.78 642.534 800.011 640.648C795.055 639.028 792.951 646.827 797.867 648.433C803.634 650.318 809.53 651.778 815.299 653.665M833.398 806.041C834.935 810.996 842.722 808.869 841.181 803.895C839.692 799.094 839.585 794.262 839.582 789.274C839.579 784.071 831.508 784.08 831.511 789.274C831.514 794.951 831.705 800.577 833.398 806.041M887.356 988.549C887.649 990.559 889.243 992.007 891.329 992.101C893.453 992.196 895.441 990.177 895.364 988.065C895.216 984.001 891.904 980.689 887.843 980.541C885.583 980.458 883.902 982.456 883.808 984.577C883.715 986.639 885.436 988.248 887.356 988.549M914.662 756.548C918.926 757.971 923.483 759.327 926.826 762.484C930.604 766.051 936.318 760.35 932.533 756.776C928.124 752.613 922.454 750.648 916.807 748.762C911.861 747.111 909.76 754.911 914.662 756.548M933.168 913.376C934.341 915.38 936.714 915.742 938.689 914.824C941.336 913.593 944.258 913.634 947.112 913.631C952.312 913.627 952.304 905.554 947.112 905.558C942.71 905.562 938.648 905.977 934.615 907.853C932.631 908.777 932.147 911.63 933.168 913.376M943.626 1103.7C945.885 1103.79 947.566 1101.79 947.661 1099.67C947.754 1097.61 946.034 1096 944.112 1095.69C943.819 1093.68 942.224 1092.24 940.139 1092.14C938.015 1092.05 936.026 1094.07 936.104 1096.18C936.252 1100.24 939.562 1103.55 943.626 1103.7M208.384 1134.23C209.755 1129.29 212.892 1125.31 215.263 1120.87C216.058 1119.37 216.334 1118.44 216.765 1117.34C217.35 1118.52 218.486 1119.4 220.194 1119.4C223.471 1119.4 227.303 1119.19 230.361 1120.59C232.349 1121.5 234.691 1121.18 235.881 1119.14C236.903 1117.39 236.414 1114.53 234.433 1113.62C229.927 1111.55 225.083 1111.33 220.194 1111.32C218.986 1111.32 218.072 1111.77 217.427 1112.44C215.559 1086.84 215.605 1061.23 217.372 1035.63C219.258 1008.26 223.597 981.435 228.136 954.42C230.334 941.322 233.189 928.092 232.634 914.751C232.08 901.501 226.4 889.15 230.425 875.859C232.039 870.531 234.803 865.647 236.599 860.379C238.526 854.708 238.354 849.107 237.477 843.234C235.671 831.276 232.676 819.459 237.468 807.783C239.585 802.606 243.016 797.985 244.67 792.636C246.728 785.986 246.445 778.629 246.788 771.737C247.484 757.831 247.666 743.835 248.817 729.959C249.33 723.743 250.45 717.849 253.002 712.148C255.455 706.658 259.095 701.663 260.72 695.84C262.334 690.108 262.475 684.064 263.342 678.201C264.25 672.004 265.673 665.899 267.59 659.945C274.994 636.897 288.563 616.189 304.592 598.237C321.631 579.154 341.999 564.784 363.617 551.393C374.986 544.351 386.353 537.31 397.713 530.268C397.955 531.589 398.797 532.803 400.415 533.344C404.681 534.769 409.235 536.123 412.58 539.28C416.357 542.847 422.072 537.146 418.287 533.573C414.338 529.843 409.376 527.88 404.326 526.156C409.502 522.892 414.734 519.512 420.574 517.627C425.69 515.972 433.235 517.415 437.382 513.662C440.64 510.705 441.67 505.225 442.919 501.209C444.483 496.224 445.835 490.966 447.822 486.122C449.174 482.812 451.141 479.634 453.623 477.07C454.712 472.872 456.711 469.038 460.242 466.707C469.481 460.591 480.83 466.666 484.896 475.385C488.255 475.375 491.796 476.112 495.064 476.314C501.783 476.737 508.512 476.929 515.241 476.909C528.405 476.869 541.58 476.011 554.634 474.265C577.978 471.137 600.626 464.83 623.576 459.915C623.707 459.612 623.858 459.31 624.04 459.007C628.983 450.712 641.301 452.115 649.059 455.253C652.387 456.595 655.777 458.29 657.683 461.439C659.701 462.801 661.446 464.456 662.606 466.202C665.007 469.805 666.864 477.07 671.736 477.676C674.944 478.069 678.203 477.454 681.461 477.918C685.537 478.483 689.188 479.916 692.951 481.551C721.601 493.994 751.22 507.829 782.312 512.652C789.605 513.783 797.029 514.953 803.365 519.04C808.51 522.36 812.485 526.922 816.731 531.251C820.867 535.469 824.277 537.336 830.179 538.093C837.341 539.011 843.545 540.989 848.781 546.196C853.129 550.525 855.964 556.055 859.373 561.081C862.845 566.207 867.938 569.093 873.224 572.07C885.723 579.114 897.365 587.621 907.503 597.823C928.86 619.338 941.793 646.988 954.826 673.932C968.919 703.076 982.094 732.573 991.234 763.694C1000.19 794.251 1005.52 825.685 1007.98 857.412C1010.57 890.704 1010.94 924.126 1013.09 957.438C1014.17 974.078 1014.99 990.739 1015.82 1007.39C1016.63 1023.84 1017.81 1040.32 1017.62 1056.79C1017.25 1088.62 1010.89 1120.56 999.758 1150.37C996.984 1157.79 993.908 1165.11 990.63 1172.31C987.754 1178.64 977.918 1177.93 974.831 1172.31C974.125 1171.02 973.57 1169.69 973.106 1168.34C965.035 1168.41 956.884 1167.78 948.864 1168.53C934.701 1169.85 920.508 1170.59 906.304 1171.46C878.198 1173.21 850.042 1174.37 821.927 1175.98C819.199 1176.13 816.471 1176.29 813.744 1176.45C833.78 1114.42 831.181 1047.35 834.352 982.833C834.607 977.632 826.535 977.663 826.282 982.833C823.098 1047.63 825.809 1114.86 805.065 1177C797.016 1177.54 788.979 1178.21 780.969 1179.18C774.494 1179.96 767.986 1180.88 761.449 1180.56C754.034 1180.2 746.791 1178.51 739.558 1177.03C726.413 1174.36 713.753 1175.57 700.558 1177.22C686.444 1178.98 672.281 1179.96 658.077 1180.58C601.201 1183.07 543.941 1185.34 487.085 1181.54C473.325 1180.62 459.595 1179.33 445.926 1177.57C431.843 1175.76 417.911 1172.73 403.839 1171C389.968 1169.3 377.216 1173.96 363.507 1174.81C349.526 1175.69 335.169 1172.78 321.318 1171.1C316.8 1170.55 312.276 1170.02 307.752 1169.49C313.577 1129.56 316.889 1089.32 320.106 1049.1C320.52 1043.91 312.447 1043.95 312.035 1049.1C308.844 1089 305.606 1128.94 299.79 1168.56C275.806 1165.77 251.799 1162.95 228.065 1158.6C221.306 1157.37 214.587 1155.36 210.542 1149.32C207.547 1144.85 206.94 1139.37 208.384 1134.23" fill="black"/>
<path fill-rule="evenodd" clip-rule="evenodd" d="M390.49 287.423C392.657 268.335 389.852 228.438 389.664 226.014C388.476 210.691 395.639 150.18 409.179 155.755C431.891 137.731 462.143 133.751 490.43 131.85C549.187 127.9 611.694 136.967 657.065 176.606C679.503 197.191 701.347 227.131 699.591 258.305C719.977 287.855 748.717 328.389 723.317 362.934C714.683 373.971 700.961 378.081 690.114 386.44C668.298 404.08 654.611 429.395 632.587 446.929C574.24 499.488 475.166 510.467 417.84 450.686C373.511 407.391 380.679 342.618 388.476 287.423C393.718 250.315 386.262 324.661 390.49 287.423Z" fill="#EDB98A"/>
<path fill-rule="evenodd" clip-rule="evenodd" d="M568.922 50.9047C553.208 47.726 537.072 45.7481 521.024 46.3435L519.787 46.3916C507.713 46.8754 492.422 47.9455 481.889 54.9837C481.283 54.3741 480.309 54.0613 479.425 54.4841C466.908 60.4733 453.14 64.8035 439.961 69.1065C426.842 73.3882 413.232 76.2148 399.482 77.3541C394.308 77.783 389.881 83.3827 393.157 88.4051C393.936 89.6019 394.695 90.8109 395.451 92.0229C394.187 91.8907 392.922 91.7544 391.658 91.6263C387.497 91.2065 383.341 95.6578 383.587 99.7185C383.741 102.273 384.016 104.796 384.423 107.29C382.838 107.257 381.263 107.495 379.741 108.14C372.034 111.402 372.57 120.605 373.147 127.606C373.946 137.322 377.571 147.613 384.302 154.885C379.277 160.117 375.719 166.366 373.597 173.787C372.058 179.206 371.201 184.978 371.624 190.619L371.759 192.308C372.282 198.43 373.321 205.207 377.714 209.611C379.969 211.882 382.748 212.709 385.396 212.447C383.795 226.554 382.768 240.743 381.801 254.881L381.348 261.638C379.192 294.314 377.572 327.202 377.996 359.931C378.39 390.518 384.419 420.207 403.133 445.042C420.177 467.656 444.648 484.327 472.332 490.665C487.251 494.085 502.482 494.328 517.582 492.148C524.901 491.088 532.269 489.464 539.216 486.9C546.906 484.055 552.433 479.867 557.607 473.59C560.054 470.613 558.876 464.276 554.003 464.871C546.633 465.767 539.905 466.847 532.839 469.032L531.827 469.352C524.789 471.612 517.501 473.297 510.143 474.014C495.072 475.477 479.772 474.004 465.335 469.422C441.829 461.955 421.585 445.314 408.609 424.405C393.207 399.621 391.465 371.486 391.688 342.988C391.926 311.717 392.941 280.427 394.597 249.188L394.879 243.982C395.755 227.907 396.601 211.821 397.344 195.735C397.576 190.69 397.928 185.604 398.564 180.568C404.371 177.157 409.576 172.455 412.968 166.652C419.783 169.478 426.951 171.516 433.546 173.141C448.821 176.907 464.68 177.821 480.228 175.463C484.422 177.2 488.699 178.727 493.042 180.04C494.216 180.562 495.39 181.075 496.562 181.577C507.033 186.068 517.653 189.872 528.705 192.658L531.421 193.336C537.237 194.774 543.555 196.189 549.745 196.634C550.762 197.027 551.859 197.36 553.058 197.653C558.694 199.025 564.544 199.459 570.321 198.975C575.95 198.5 580.017 192.799 576.916 187.461C574.651 183.565 572.365 179.68 570.06 175.805C578.083 179.155 586.368 181.941 594.723 184.302C603.159 186.684 611.716 188.692 620.284 190.538C624.864 191.517 629.463 192.385 634.034 193.364C637.305 194.06 642.329 194.424 644.997 196.583C647.946 198.955 648.782 204.485 649.9 207.895C651.37 212.326 652.749 216.776 654.007 221.277C656.513 230.258 658.566 239.37 660.157 248.574C661.748 257.787 662.816 267.091 663.41 276.426C664.002 285.75 663.742 295.135 664.697 304.419C665.211 309.344 670.485 311.876 674.381 308.435C674.838 308.032 675.299 307.624 675.755 307.211L676.435 306.589C679.768 303.561 682.999 300.352 685.666 296.74C686.149 296.073 686.612 295.377 687.045 294.671C687.116 294.671 687.176 294.651 687.247 294.6L687.986 294.042C696.128 287.968 709.73 280.048 717.668 290.14C720.198 293.355 721.493 297.449 722.568 301.398L724.454 308.466C725.674 313.081 726.823 317.721 727.494 322.442C729.014 333.018 728.249 345.208 720.99 353.685C718.091 357.076 714.095 359.497 709.636 360.133C707.149 360.476 704.692 360.052 702.226 359.74C699.719 359.427 697.304 359.931 694.797 359.689C690.81 359.296 689.069 364.079 690.559 367.086C691.364 368.701 692.311 370.093 693.387 371.274C692.523 372.021 691.696 372.828 690.901 373.676C688.545 374.433 686.432 376.057 684.851 378.207C683.572 379.942 682.909 381.83 682.797 383.818C682.657 384.312 682.536 384.817 682.425 385.331L680.265 388.845C679.79 389.616 679.317 390.377 678.842 391.124C673.345 399.802 667.244 407.149 659.664 414.071C652.365 420.732 644.444 426.696 637.587 433.84L636.78 434.689C630.388 441.441 623.65 449.614 626.151 459.432C626.796 461.955 630.31 463.771 632.604 462.066C639.983 456.576 643.699 447.877 649.959 441.217C656.403 434.355 663.54 428.189 670.002 421.347C676.114 414.889 680.936 407.573 684.569 399.52C686.019 401.124 688.132 402.265 691.062 402.709C696.095 403.465 700.787 400.509 702.981 396.139C704.391 396.765 705.83 397.33 707.28 397.774C714.911 400.115 719.712 391.608 716.833 385.321C715.294 381.951 713.371 379.024 710.984 376.562C718.444 375.533 726.035 371.668 730.937 366.844C743.238 354.724 744.929 336.509 742.161 320.313C740.691 311.725 738.155 303.036 734.862 294.974C734.289 293.571 733.674 292.158 733.001 290.765C733.373 290.755 733.756 290.594 733.998 290.281C736.222 287.233 738.929 284.741 740.581 281.33C742.101 278.202 743.791 275.033 744.99 271.774C747.456 265.103 748.664 257.575 749.469 250.521C751.13 236.081 750.487 221.731 748.281 207.381C744.527 182.94 735.459 159.55 722.1 139.026C722.827 138.643 723.524 138.181 724.174 137.634L724.495 137.353L725.016 136.881C728.828 133.423 728.499 126.941 725.016 123.438L723.916 122.333C722.523 120.946 721.322 119.846 719.072 118.336C718.739 118.113 718.4 117.903 718.057 117.707C719.235 115.526 719.643 112.974 718.823 110.16C715.964 100.355 701.891 100.702 692.971 104.978C683.102 96.1492 672.16 88.4848 660.299 82.2787C632.051 67.505 600.11 57.2017 568.922 50.9047ZM714.94 309.142C709.665 307.416 702.658 311.039 697.917 313.219C691.907 315.984 686.793 320.071 681.84 324.39C679.374 326.549 678.932 330.081 679.545 333.099C679.607 333.401 679.666 333.714 679.737 334.027C680.392 337.246 683.976 339.779 687.147 339.688C693.781 339.507 696.941 333.765 700.696 328.901C701.138 329.688 701.692 330.414 702.378 330.959L702.841 331.322C704.399 332.512 706.117 333.463 708.176 333.371C709.636 333.3 711.034 332.927 712.324 332.251C715.545 330.545 716.963 326.368 716.088 322.967C715.545 320.827 714.297 319.152 712.666 317.992L713.274 317.575C714.574 316.668 715.761 315.711 716.685 314.299L716.894 313.965H716.813C717.82 312.23 717.165 309.868 714.94 309.142Z" fill="black"/>
<path fill-rule="evenodd" clip-rule="evenodd" d="M465.778 410.695C473.21 412.848 481.186 413.04 488.761 410.817C495.632 408.8 502.687 404.361 507.744 398.487C512.236 393.27 515.145 386.929 515.031 380.16C515.018 379.387 514.742 378.742 514.316 378.241C513.859 377.702 513.22 377.332 512.535 377.171C511.831 377.006 511.087 377.064 510.453 377.352C509.879 377.613 509.387 378.056 509.08 378.703C508.303 379.725 507.529 380.731 506.752 381.709C500.503 389.427 494.452 395.195 485.056 397.264C479.958 398.386 474.867 397.889 470.195 396.176C465.194 394.342 460.674 391.118 457.131 386.993C455.53 385.128 453.64 384.367 451.792 384.354C449.698 384.34 447.628 385.313 446.068 386.869C444.535 388.399 443.509 390.477 443.416 392.651C443.334 394.559 443.957 396.552 445.612 398.331C451.065 404.188 458.132 408.479 465.778 410.695ZM466.008 314.028C458.39 318.66 446.782 329.461 454.977 340.944C464.624 351.069 478.512 339.46 485.356 334.21C491.703 330.141 498.833 340.606 492.945 345.357C443.49 381.984 423.42 315.239 462.155 308.582C466.419 307.848 468.003 312.595 466.008 314.028ZM537.269 293.647C539.717 292.08 542.597 291.543 545.789 292.995C548.284 294.13 552.659 297.913 555.703 302.885C557.786 306.287 559.263 310.278 558.956 314.436C558.885 315.401 559.241 316.113 559.804 316.639C560.248 317.055 560.89 317.36 561.643 317.456C562.283 317.537 563 317.464 563.582 317.282C564.69 316.936 565.276 316.217 565.497 315.63C567.629 309.967 566.71 303.647 564.321 297.945C561.097 290.251 555.241 283.805 551.405 281.727C544.84 278.17 537.095 278.006 530.521 281.63C524.924 284.714 521.425 289.694 517.945 294.77C517.205 295.849 516.471 296.92 515.712 297.972C514.191 300.081 514.04 302.172 514.629 303.965C515.281 305.952 516.945 307.629 519.025 308.506C520.948 309.317 523.18 309.431 525.155 308.598C526.823 307.894 528.354 306.522 529.323 304.194C530.955 300.273 533.673 295.947 537.269 293.647V293.647ZM412.918 302.37C414.595 303.244 415.907 303.507 417.767 302.95C418.795 302.641 419.812 302.048 420.608 301.252C421.397 300.463 421.966 299.482 422.187 298.393C422.731 295.707 424.201 293.192 426.295 291.552C428.085 290.151 430.344 289.408 432.85 289.827C435.554 290.279 438.13 292.014 439.904 294.059C440.497 294.743 440.962 295.521 441.429 296.293C442.304 297.736 443.153 299.078 444.359 300.139C444.816 300.542 445.505 300.821 446.172 300.821C446.443 300.821 446.718 300.777 446.98 300.696C449.672 297.993 450.189 295.944 450.102 293.91C450.011 291.778 449.171 289.62 447.813 287.605C444.628 282.881 438.58 279.007 434.498 278.129C428.909 276.928 423.358 278.37 418.908 281.493C414.329 284.706 410.936 289.695 409.878 295.317C409.623 296.671 409.732 298.132 410.247 299.399C410.751 300.638 411.629 301.698 412.918 302.37ZM524.942 243.273C528.296 246.542 532.266 247.049 536.282 247.499C538.514 247.752 540.295 247.955 542.048 248.351C546.867 249.439 551.63 251.078 555.975 253.438C560.517 255.905 565.467 258.88 569.029 262.692C569.875 263.599 570.674 264.55 571.473 265.504C572.202 266.374 572.904 267.211 573.644 268.019C574.494 268.946 575.301 269.918 576.104 270.887C576.6 271.705 576.698 271.906 576.798 272.116C576.949 272.431 577.124 272.783 577.323 273.161C577.597 273.678 577.918 274.244 578.253 274.758C578.812 275.697 579.112 275.955 579.371 276.071C579.801 276.262 580.208 276.357 580.604 276.306C580.974 276.258 581.324 276.079 581.669 275.788C583.391 274.332 583.899 271.944 583.847 269.408C583.768 265.561 582.349 261.301 581.041 258.682C578 252.597 573.783 246.272 568.712 241.73C562.925 236.547 556.595 232.622 549.323 229.918C544.804 228.237 539.572 226.694 534.649 226.889C531.106 227.029 527.723 228.083 524.929 230.714C523.214 232.329 522.39 234.627 522.39 236.923C522.39 239.265 523.246 241.62 524.942 243.273ZM406.096 273.209C406.309 273.559 406.605 273.8 406.933 273.945C407.278 274.096 407.662 274.14 408.031 274.078C408.398 274.016 408.747 273.849 409.024 273.595C409.29 273.351 409.492 273.027 409.582 272.631C411.809 262.847 416.133 255.567 425.363 250.873C429.903 248.564 435.124 247.097 440.066 245.927C441.502 245.587 443.02 245.366 444.548 245.143C449.337 244.444 454.162 243.643 457.284 239.77C459.166 237.437 459.955 234.453 459.509 231.725C459.088 229.156 457.588 226.8 454.86 225.389C448.068 221.876 439.628 225.323 432.769 228.259C432.26 228.477 431.761 228.691 431.272 228.897C424.565 231.729 418.448 235.467 413.419 240.813C409.429 245.055 405.733 251.325 404.244 257.775C403.005 263.141 403.297 268.619 406.096 273.209Z" fill="black"/>
<path fill-rule="evenodd" clip-rule="evenodd" d="M444.641 426.994C454.036 418.621 464.567 401.788 478.064 415.107C481.402 418.87 482.754 427.306 487.858 428.961C494.637 431.161 501.356 423.986 503.666 418.476C513.119 387.862 474.044 379.465 451.784 384.411C440.909 388.879 432.899 406.861 432.415 416.246C432.102 422.553 437.438 431.827 444.641 426.994M373.763 379.807C373.855 379.4 373.983 379.033 374.137 378.699C378.292 377.127 381.58 378.73 383.612 381.723C383.545 382.467 383.323 383.22 383.183 383.958C384.751 387.262 386.165 391.35 388.289 394.205C388.709 394.237 389.144 394.193 389.562 394.072C424.782 397.751 407.587 360.888 443.31 351.732C470.924 347.175 520.833 352.395 533.86 381.147C544.133 427.07 596.372 395.071 613.524 371.188C631.825 349.452 643.658 322.891 655.067 297.118C657.478 291.664 665.003 295.564 664.185 300.798C674.731 321.96 674.38 347.38 676.992 370.564C681.434 416.817 685.763 481.683 642.801 509.925C586.826 573.215 447.048 595.549 382.487 537.397C360.138 489.332 362.893 430.694 373.763 379.807" fill="black"/>
<path fill-rule="evenodd" clip-rule="evenodd" d="M410.529 238.982C386.85 238.982 373.338 244.075 368.386 244.472L368.237 244.483C366.178 244.615 364.33 244.787 362.392 245.537C355.264 248.283 354.103 255.761 358.262 260.474C358.554 270.226 357.272 281.62 359.472 291.404C362.186 332.648 381.576 339.608 392.598 342.148C398.131 343.424 404.69 343.932 410.567 342.585C420.595 342.211 430.508 339.071 438.989 333.603C450.802 325.982 459.575 314.269 462.422 300.367C463.772 293.741 464.402 286.844 463.668 280.108L463.559 279.18C467.398 277.343 471.848 276.995 476.434 276.833C478.625 276.755 480.785 276.685 482.883 276.779C484.933 277.008 486.959 277.313 488.992 277.728C491.211 278.398 493.307 279.503 495.242 281.254L495.375 283.81C495.739 290.194 496.577 296.597 497.869 302.86C499.777 312.101 502.846 320.927 509.378 327.482C511.589 330.785 514.325 333.734 517.647 336.287C529.713 345.58 546.105 348.992 561.15 347.707C591.694 345.1 609.348 320.846 613.417 310.479L613.66 309.851C616.599 302.144 618.942 292.143 628.229 290.488L630.204 290.133C634.442 289.337 638.353 288.229 640.838 284.093C641.927 282.287 642.487 280.267 642.625 278.208C644.074 278.32 645.522 278.426 646.965 278.53C658.474 280.964 727.504 283.029 733.013 283.029C733.013 283.029 743.605 287.488 748.077 284.033C751.176 281.63 752.196 278.428 750.49 274.801C747.915 269.343 736.038 266.06 730.764 265.02C730.764 265.02 645.657 265.727 639.531 264.565C635.741 260.656 628.962 261.191 623.297 260.573C618.607 257.228 612.047 254.988 606.865 253.488C605.809 253.088 604.763 252.701 603.746 252.336C594.246 248.952 584.371 247.159 574.346 246.196C564.007 245.213 553.639 245.658 543.361 247.067C539.03 247.654 534.739 248.414 530.479 249.409C522.85 250.415 515.266 252.072 507.634 254.037L506.107 254.434C498.071 256.542 489.812 258.365 481.493 256.936C474.721 255.781 468.208 253.173 461.963 250.354L461.15 249.985C447.42 243.714 425.977 238.982 410.529 238.982ZM531.305 261.912C536.371 260.797 538.534 268.61 533.452 269.728C529.853 270.52 526.803 272.335 524.742 275.411L524.525 275.745C521.76 280.147 514.768 276.084 517.552 271.653C520.685 266.668 525.553 263.176 531.305 261.912ZM382.924 257.067C384.71 255.808 387.412 256.743 388.449 258.521C389.59 260.479 388.842 262.66 387.17 263.941L387 264.066C385.465 265.148 383.971 267.087 383.783 269.073L383.767 269.322C383.566 274.521 375.488 274.547 375.69 269.322C375.887 264.21 378.846 259.939 382.924 257.067Z" fill="black"/>
<path d="M482.116 805.825C482.116 815.228 480.379 823.281 476.903 829.985C473.456 836.66 468.748 841.773 462.779 845.324C456.837 848.875 450.097 850.65 442.558 850.65C435.019 850.65 428.265 848.875 422.296 845.324C416.354 841.745 411.646 836.617 408.171 829.942C404.724 823.238 403 815.199 403 805.825C403 796.423 404.724 788.384 408.171 781.708C411.646 775.004 416.354 769.877 422.296 766.326C428.265 762.775 435.019 761 442.558 761C450.097 761 456.837 762.775 462.779 766.326C468.748 769.877 473.456 775.004 476.903 781.708C480.379 788.384 482.116 796.423 482.116 805.825ZM466.436 805.825C466.436 799.206 465.413 793.625 463.367 789.08C461.349 784.506 458.547 781.055 454.959 778.725C451.372 776.368 447.238 775.189 442.558 775.189C437.878 775.189 433.744 776.368 430.157 778.725C426.57 781.055 423.753 784.506 421.707 789.08C419.689 793.625 418.68 799.206 418.68 805.825C418.68 812.444 419.689 818.04 421.707 822.613C423.753 827.158 426.57 830.609 430.157 832.967C433.744 835.297 437.878 836.461 442.558 836.461C447.238 836.461 451.372 835.297 454.959 832.967C458.547 830.609 461.349 827.158 463.367 822.613C465.413 818.04 466.436 812.444 466.436 805.825Z" fill="#F1F1F1"/>
<path d="M496.189 874V784.009H511.154V794.832H512.037C512.822 793.241 513.929 791.551 515.358 789.761C516.787 787.943 518.721 786.395 521.159 785.117C523.598 783.81 526.708 783.157 530.492 783.157C535.48 783.157 539.979 784.449 543.986 787.034C548.022 789.591 551.217 793.383 553.571 798.411C555.953 803.411 557.144 809.546 557.144 816.818C557.144 824.005 555.981 830.112 553.655 835.14C551.329 840.168 548.162 844.003 544.154 846.645C540.147 849.287 535.607 850.607 530.534 850.607C526.835 850.607 523.766 849.983 521.328 848.733C518.889 847.483 516.927 845.977 515.442 844.216C513.985 842.426 512.85 840.736 512.037 839.146H511.406V874H496.189ZM511.112 816.733C511.112 820.966 511.701 824.673 512.878 827.854C514.083 831.036 515.806 833.521 518.049 835.311C520.319 837.072 523.065 837.952 526.288 837.952C529.651 837.952 532.468 837.043 534.738 835.225C537.008 833.379 538.717 830.865 539.866 827.684C541.044 824.474 541.632 820.824 541.632 816.733C541.632 812.671 541.058 809.063 539.908 805.91C538.759 802.757 537.05 800.286 534.78 798.496C532.51 796.707 529.679 795.812 526.288 795.812C523.037 795.812 520.277 796.678 518.006 798.411C515.736 800.144 514.013 802.573 512.836 805.697C511.687 808.822 511.112 812.501 511.112 816.733Z" fill="#F1F1F1"/>
<path d="M588.757 850.778C584.665 850.778 580.98 850.039 577.701 848.562C574.45 847.057 571.872 844.841 569.966 841.915C568.088 838.989 567.149 835.382 567.149 831.092C567.149 827.4 567.822 824.346 569.167 821.931C570.512 819.517 572.348 817.585 574.674 816.136C577 814.688 579.621 813.594 582.535 812.856C585.478 812.089 588.519 811.535 591.658 811.194C595.441 810.796 598.51 810.441 600.864 810.129C603.218 809.788 604.928 809.276 605.993 808.595C607.086 807.884 607.632 806.791 607.632 805.314V805.058C607.632 801.848 606.693 799.363 604.816 797.601C602.938 795.84 600.234 794.96 596.702 794.96C592.975 794.96 590.018 795.783 587.832 797.431C585.674 799.079 584.217 801.024 583.46 803.268L569.251 801.223C570.372 797.246 572.222 793.923 574.8 791.253C577.379 788.554 580.532 786.537 584.259 785.202C587.986 783.839 592.106 783.157 596.618 783.157C599.729 783.157 602.826 783.526 605.909 784.265C608.992 785.003 611.808 786.225 614.358 787.929C616.909 789.605 618.955 791.892 620.496 794.789C622.065 797.687 622.85 801.308 622.85 805.655V849.457H608.221V840.466H607.716C606.792 842.284 605.488 843.989 603.807 845.58C602.153 847.142 600.065 848.406 597.543 849.372C595.049 850.309 592.12 850.778 588.757 850.778ZM592.709 839.444C595.763 839.444 598.412 838.833 600.654 837.612C602.896 836.362 604.62 834.714 605.825 832.669C607.058 830.624 607.674 828.394 607.674 825.979V818.267C607.198 818.665 606.385 819.034 605.236 819.375C604.115 819.716 602.854 820.014 601.453 820.27C600.051 820.525 598.664 820.753 597.291 820.951C595.918 821.15 594.727 821.321 593.718 821.463C591.448 821.775 589.416 822.286 587.622 822.997C585.828 823.707 584.413 824.701 583.376 825.979C582.339 827.229 581.821 828.848 581.821 830.837C581.821 833.677 582.844 835.822 584.89 837.271C586.935 838.719 589.542 839.444 592.709 839.444Z" fill="#F1F1F1"/>
<path d="M679.308 821.931V784.009H694.526V849.457H679.77V837.825H679.098C677.64 841.489 675.244 844.486 671.909 846.815C668.602 849.145 664.524 850.309 659.676 850.309C655.444 850.309 651.703 849.358 648.452 847.454C645.229 845.523 642.706 842.725 640.885 839.06C639.063 835.368 638.152 830.908 638.152 825.681V784.009H653.37V823.295C653.37 827.442 654.491 830.737 656.733 833.18C658.975 835.623 661.918 836.845 665.561 836.845C667.803 836.845 669.975 836.291 672.077 835.183C674.179 834.075 675.903 832.427 677.248 830.24C678.621 828.025 679.308 825.255 679.308 821.931Z" fill="#F1F1F1"/>
<path d="M710.174 849.457V784.009H724.93V794.917H725.602C726.78 791.139 728.797 788.227 731.656 786.182C734.543 784.108 737.836 783.072 741.535 783.072C742.376 783.072 743.315 783.114 744.352 783.199C745.417 783.256 746.299 783.356 747 783.498V797.687C746.355 797.459 745.332 797.261 743.931 797.09C742.558 796.891 741.227 796.792 739.938 796.792C737.163 796.792 734.669 797.403 732.455 798.624C730.269 799.817 728.545 801.479 727.284 803.609C726.023 805.74 725.392 808.197 725.392 810.981V849.457H710.174Z" fill="#F1F1F1"/>
</g>
<defs>
<clipPath id="clip0_53_19557">
<rect width="1199" height="1024" fill="white"/>
</clipPath>
</defs>
</svg>
