<?xml version="1.0" encoding="utf-8"?>
<!-- Generator: Adobe Illustrator 24.0.1, SVG Export Plug-In . SVG Version: 6.00 Build 0)  -->
<svg version="1.1" id="Capa_1" xmlns="http://www.w3.org/2000/svg" xmlns:xlink="http://www.w3.org/1999/xlink" x="0px" y="0px"
	 viewBox="0 0 4001 1322.9" style="enable-background:new 0 0 4001 1322.9;" xml:space="preserve">
<style type="text/css">
	.st0{fill-rule:evenodd;clip-rule:evenodd;fill:#FFFFFF;}
	.st1{fill:#FFFFFF;}
</style>
<title>Sin título-1</title>
<g>
	<path class="st0" d="M466.3,81.2c216.1,0.6,362.5,217.5,285.4,422.9c-12.9,34.4-28.9,67.5-49.2,98.1c-10.6,16-12,27.7-0.6,44.6
		c33.9,50.4,65,102.7,98.3,153.4c28.3,43.1,36,87.1,7.9,132.5c-28.2,45.5-71,57.2-122.2,50.4c-140.8-18.8-206.6-133.2-150.7-264
		c12-27.9,27-54.4,44.9-79c9.6-13.2,8.7-22.8-0.2-36.2c-31.3-47.1-60.8-95.4-91.5-142.9c-17.9-27.7-28.3-27.9-45.5-1.3
		c-31.4,48.3-61.4,97.5-93.5,145.3c-9.7,14.5-6.4,23.8,2,36.3c29.5,43.6,56.5,89.1,62.6,142.4c14.3,126.7-85.3,205.6-208.3,201
		c-86.8-3.2-125.2-110.7-82.7-173.1c36.5-53.7,69.2-109.9,105.3-163.8c11.1-16.6,11-28.4,0.3-44.7c-24.2-36.8-43.2-76.8-56.5-118.8
		C109.1,283.8,257.5,80.6,466.3,81.2z M293.1,543.9c25.9-41.2,51.4-81.7,76.9-122.3c53.8-85.9,137.3-85.6,191.1,0.6
		c25.2,40.4,50.7,80.6,76.8,122.1c73.7-113.7,76.7-232.1-26.2-326.6c-83.3-76.5-218.3-72.5-300.2,6.6
		C220.9,311.8,216,440.5,293.1,543.9z M290.8,701.2c-34.3,53.4-68.2,104.5-100.3,156.8c-11,18,0.3,39.4,20,44.4
		C275.1,918.6,343.1,857,332,791.5C326.6,759.2,312.7,730.1,290.8,701.2z M639.3,700.4c-26.8,38.8-45.4,76.8-41,120.9
		c5,50.8,75.1,95.6,123.1,80.3c23-7.3,28.1-25.5,16.4-44.9C706.6,805.2,673.7,754.7,639.3,700.4L639.3,700.4z"/>
	<path class="st1" d="M1656.8,551.3c0,95.3-17.4,177.2-52.3,245.6s-82.6,121-143.2,157.8c-60.6,36.8-129.4,55.1-206.4,55.1
		c-77.3,0-146.3-18.4-206.8-55.1c-60.5-36.8-108.3-89.4-143.2-158c-34.9-68.6-52.3-150.4-52.3-245.4c0-95.3,17.4-177.2,52.3-245.6
		c34.9-68.4,82.6-121,143.2-157.7c60.6-36.8,129.6-55.2,206.8-55.2c77,0,145.8,18.4,206.4,55.1s108.3,89.3,143.2,157.8
		C1639.3,374.2,1656.8,456,1656.8,551.3z M1523.4,551.3c0-72.7-11.7-133.9-35.1-183.7s-55.4-87.6-95.9-113.3
		c-40.5-25.7-86.4-38.6-137.5-38.6c-51.4,0-97.3,12.9-137.7,38.6c-40.4,25.7-72.3,63.5-95.7,113.3c-23.4,49.8-35.1,111.1-35.1,183.7
		c0,72.6,11.7,133.9,35.1,183.7c23.4,49.8,55.3,87.6,95.7,113.3c40.4,25.7,86.3,38.6,137.7,38.6c51.1,0,97-12.9,137.5-38.6
		c40.5-25.7,72.5-63.5,95.9-113.3C1511.7,685.2,1523.4,624,1523.4,551.3z"/>
	<path class="st1" d="M1703.2,1228.4v-880c0-11.2,9.1-20.3,20.3-20.3h86.7c11.2,0,20.3,9.1,20.3,20.3v88.3h10.9
		c7.6-14,18.4-30.1,32.7-48.4s34-34.4,59.3-48.2c25.3-13.8,58.7-20.7,100.3-20.7c54.1,0,102.3,13.7,144.7,41s75.8,66.7,100,118.1
		c24.3,51.4,36.4,113.3,36.4,185.7s-12,134.3-36.1,185.9c-24.1,51.6-57.2,91.2-99.4,119c-42.1,27.8-90.2,41.6-144.3,41.6
		c-40.7,0-73.9-6.8-99.6-20.5c-25.7-13.7-45.9-29.7-60.4-48c-14.5-18.3-25.7-34.6-33.6-48.8h-7.8v335c0,11.2-9.1,20.3-20.3,20.3
		h-89.8C1712.2,1248.7,1703.2,1239.6,1703.2,1228.4z M1830.9,662.9c0,47.1,6.8,88.3,20.5,123.8s33.4,63.1,59.3,83
		c25.9,19.9,57.5,29.8,95,29.8c38.9,0,71.5-10.4,97.6-31.2s46-49,59.5-84.8c13.5-35.7,20.3-76,20.3-120.7c0-44.2-6.6-83.8-19.8-119
		c-13.2-35.2-33-62.9-59.3-83.3s-59.1-30.5-98.3-30.5c-37.8,0-69.7,9.7-95.7,29.2c-26,19.5-45.7,46.6-59.1,81.5
		C1837.6,575.7,1830.9,616.4,1830.9,662.9L1830.9,662.9z"/>
	<path class="st1" d="M2569.6,1012.5c-42.4,0-80.8-7.9-115.1-23.8c-34.3-15.8-61.4-38.9-81.3-69.1c-19.9-30.2-29.9-67.3-29.9-111.2
		c0-37.8,7.3-68.9,21.8-93.3c14.2-24.1,34.5-44.1,58.8-58c24.7-14.2,52.3-25,82.8-32.3c30.7-7.3,61.9-12.8,93.3-16.6
		c40.1-4.7,72.7-8.5,97.6-11.6c25-3,43.1-8,54.5-15c11.3-7,17-18.3,17-34v-3c0-38.1-10.7-67.6-32.1-88.5
		c-21.4-20.9-53.1-31.4-95.2-31.4c-43.9,0-78.4,9.7-103.5,29c-20.2,15.5-35.4,32.4-45.6,50.7c-4.3,7.9-13.4,12-22.2,10l-83.5-19
		c-11-2.5-17.8-13.5-15.3-24.4c0.3-1.3,0.7-2.6,1.3-3.8c13.8-30.3,32-55.6,54.6-75.8c28-25.1,61.1-43.8,97-54.9
		c36.6-11.5,75.1-17.2,115.5-17.2c26.7,0,55.1,3.1,85.2,9.4c30,6.2,58.6,17.8,84.5,34.2c26.3,16.6,47.9,40.2,64.7,70.8
		c16.9,30.7,25.3,70.4,25.3,119.2v424.3c0,11.2-9.1,20.3-20.3,20.3l0,0H2793c-11.2,0-20.3-9.1-20.3-20.3c0,0,0,0,0,0v-71.3h-5.2
		c-8.4,16.9-21.1,33.4-37.9,49.7c-16.9,16.3-38.5,29.8-64.9,40.5C2638.2,1007.1,2606.5,1012.5,2569.6,1012.5z M2597.9,907.9
		c36,0,66.9-7.1,92.6-21.4c25.8-14.2,45.4-32.9,58.9-56c13.3-22.5,20.3-48.2,20.3-74.3v-54.3c0-11.2-9.2-20.3-20.4-20.2
		c-2,0-4.1,0.3-6,0.9l-0.4,0.1c-14.8,4.3-29.9,7.6-45.1,10c-16.8,2.8-33.3,5.2-49.3,7.4l-40.1,5.4c-25.3,3.2-48.3,8.6-69.1,16.1
		s-37.3,18.4-49.7,32.5c-12.3,14.1-18.5,32.8-18.5,56c0,32.3,11.9,56.6,35.7,73S2561,907.8,2597.9,907.9L2597.9,907.9z"/>
	<path class="st1" d="M3374.8,720V348.5c0-11.2,9.1-20.3,20.3-20.3h90.2c11.2,0,20.3,9.1,20.3,20.3v628.9c0,11.2-9.1,20.3-20.3,20.3
		l0,0h-87.6c-11.2,0-20.3-9.1-20.3-20.3c0,0,0,0,0,0v-95.7h-7c-15.4,35.7-40,65.4-73.9,89.1c-33.8,23.7-75.9,35.5-126.2,35.5
		c-43,0-81-9.5-114-28.5s-58.8-47.3-77.5-84.8c-18.7-37.5-28.1-83.8-28.1-139V348.5c0-11.2,9.1-20.3,20.3-20.3c0,0,0,0,0,0h89.8
		c11.2,0,20.2,9.1,20.2,20.3v389.9c0,45.6,12.6,82,37.9,109c25.3,27,58.1,40.6,98.5,40.5c24.4,0,48.7-6.1,73-18.3
		s44.4-30.7,60.6-55.4C3367.2,789.5,3375.1,758.1,3374.8,720z"/>
	<path class="st1" d="M3569.9,977.4V348.5c0-11.2,9.1-20.3,20.3-20.3h85.4c11.2,0,20.3,9.1,20.3,20.3l0,0v86.1h7
		c12.2-36,33.8-64.4,64.7-85.2c30.9-20.8,66-31.2,105.3-31.2c8.1,0,17.8,0.3,29,0.9c2.6,0.1,5,0.3,7.3,0.4c10.7,0.7,19,9.5,19,20.2
		v81.8c0.1,11.1-8.9,20.2-20.1,20.3c-1,0-2-0.1-3-0.2l-4.8-0.7c-13.3-1.9-26.7-2.8-40.1-2.8c-30.8,0-58.2,6.5-82.1,19.4
		c-23.4,12.4-43.1,30.9-56.9,53.6c-13.9,22.8-20.9,48.8-20.9,77.8v388.6c0,11.2-9.1,20.3-20.3,20.3l0,0h-89.8
		C3578.9,997.7,3569.9,988.6,3569.9,977.4C3569.9,977.4,3569.9,977.4,3569.9,977.4z"/>
</g>
</svg>
