<svg id="Capa_1" data-name="Capa 1" xmlns="http://www.w3.org/2000/svg" viewBox="0 0 16026.06 4798.67"><defs><style>.cls-1,.cls-2{fill:#fff;}.cls-1{fill-rule:evenodd;}</style></defs><title>blanco</title><path class="cls-1" d="M1667,424.85c897.33,2.58,1505.1,902.94,1184.78,1755.7-53.68,142.86-119.87,280.42-204,407.38-43.88,66.24-49.9,114.87-2.58,185.19,140.83,209.08,269.67,426.17,408.15,636.92,117.6,179,149.21,361.73,32.69,550-117,189.11-294.89,237.6-507.44,209.25C1994,4091.46,1721,3616.19,1952.91,3073.39a1678.63,1678.63,0,0,1,186.58-328.14c39.8-54.67,36-94.65-1-150.34-129.89-195.57-252.23-396.08-379.85-593.16-74.38-114.84-117.26-116-189-5.55-130.25,200.56-254.83,404.88-388.24,603.3-40.31,60-26.64,99,8.16,150.52,122.32,181.09,234.74,369.87,259.72,591.27,59.42,525.85-354.11,853.44-864.83,834.36C224.15,4162.19,65,3716.24,241.26,3457c151.46-222.83,287.36-456.19,437.21-680.16,46.16-69,45.52-117.78,1.18-185.45-100.34-153.12-179.38-318-234.38-493.21C184,1265.8,800.08,422.35,1667,424.85ZM947.73,2345.77c107.53-171.07,213.55-339.35,319.16-507.92,223.21-356.41,570.14-355.26,793.4,2.4C2165,2008,2270.7,2175,2379.12,2347.35c306-472,318.21-963.44-108.78-1355.9-345.6-317.66-906.4-301-1246.19,27.28C647.93,1382.25,627.66,1916.64,947.73,2345.77Zm-9.48,653c-142.54,221.6-283.31,433.85-416.31,650.86-45.89,74.94,1.07,163.73,83.15,184.3,268.24,67.19,550.5-188.27,504.5-460.52C1087,3239.48,1029.38,3118.64,938.25,2998.75Zm1447-3.31C2274,3156.58,2197,3314.34,2214.91,3497.37c20.7,210.89,311.61,396.92,511,333.59,95.57-30.37,116.7-105.95,67.93-186.5C2664.34,3430.56,2527.85,3220.86,2385.24,2995.44Z" transform="translate(-169.15 -415.51)"/><path class="cls-2" d="M6765.56,2319.05q0,593.53-217.13,1019.63t-594.4,655q-377.28,228.93-856.77,228.9-481.35,0-858.58-228.9t-594.41-655.91q-217.12-427-217.12-1018.73,0-593.46,217.12-1019.63t594.41-655q377.26-228.88,858.58-228.89,479.49,0,856.77,228.89t594.4,655Q6765.57,1725.57,6765.56,2319.05Zm-553.68,0q0-452.33-145.67-762.68t-398.08-470.45q-252.39-160.14-570.87-160.15-320.28,0-571.79,160.15t-397.18,470.45q-145.66,310.37-145.65,762.68t145.65,762.69q145.65,310.35,397.18,470.46t571.79,160.13q318.45,0,570.87-160.13t398.08-470.46Q6211.88,2771.42,6211.88,2319.05Z" transform="translate(-169.15 -415.51)"/><path class="cls-2" d="M6958.3,5130V1476.76a84.15,84.15,0,0,1,84.15-84.14h360.09a84.14,84.14,0,0,1,84.14,84.14v366.41h45.24q47-86.85,135.69-200.86t246.09-199.94q157.41-85.9,416.16-85.95,336.6,0,600.76,170.1t415.27,490.36Q9497,2337.16,9497,2787.71t-150.2,771.73q-150.21,321.21-412.55,494t-598.92,172.82q-253.36,0-413.48-85t-250.59-199q-90.49-114-139.32-202.67h-32.57V5130a84.15,84.15,0,0,1-84.15,84.15H7042.45A84.15,84.15,0,0,1,6958.3,5130Zm530.17-2347.77q0,293.16,85.05,513.9t246.08,344.71q161,123.95,394.48,123.92,242.46,0,405.31-129.37t247-351.93q84.15-222.57,84.14-501.23,0-275-82.33-494t-246.08-345.61q-163.8-126.63-408-126.67-235.24,0-397.19,121.24t-245.17,338.37Q7488.47,2492.76,7488.47,2782.26Z" transform="translate(-169.15 -415.51)"/><path class="cls-2" d="M10555.33,4233.46q-264.23,0-477.75-98.62T9740.14,3848q-124-188.16-124-461.42,0-235.18,90.47-387.2t244.27-240.67q153.8-88.64,343.77-133.9a3422.91,3422.91,0,0,1,387.23-68.74q249.73-28.93,405.34-48t226.21-62.43q70.46-43.39,70.56-141.14V2291.9q0-237-133.06-367.3-132.85-130.29-395.29-130.29-273.33,0-429.73,120.34-125.93,96.78-189.15,210.48c-18.26,32.82-55.44,50-92.06,41.61l-346.76-79c-51.87-11.82-80.38-68.65-58.32-117.06q86-188.78,226.66-314.8,174.58-156.5,402.61-228t479.48-71.48q166.45,0,353.8,38.91,187.19,38.93,351,142t268.71,294q104.94,190.92,104.89,494.89v1761.5a84.15,84.15,0,0,1-84.15,84.14h-360a84.14,84.14,0,0,1-84.15-84.14V3791.94h-21.7q-52.55,105-157.44,206.28t-269.6,168.29Q10785.07,4233.42,10555.33,4233.46Zm117.53-434.28q224.37,0,384.54-88.65T11301.72,3478q84-143.82,84.1-308.51V2944.28c0-57-55-96.51-109.62-80.16l-1.64.49q-82.41,24.42-187.3,41.61T10882.75,2937q-99.42,13.55-166.4,22.62-157.48,19.92-286.82,66.95t-206.3,134.8q-76.87,87.78-76.88,232.5,0,200.86,148.34,303.09T10672.86,3799.18Z" transform="translate(-169.15 -415.51)"/><path class="cls-2" d="M13898.05,3019.32V1476.76a84.14,84.14,0,0,1,84.14-84.14h374.55a84.14,84.14,0,0,1,84.14,84.14v2611a84.14,84.14,0,0,1-84.14,84.14H13993a84.14,84.14,0,0,1-84.14-84.14V3690.63h-29q-95.91,222.54-306.67,370t-523.87,147.49q-267.81,0-473.17-118.52t-322-352q-116.73-233.4-116.74-577.21V1476.76a84.14,84.14,0,0,1,84.15-84.14h372.75a84.15,84.15,0,0,1,84.15,84.14V3095.3q0,284.11,157.38,452.37t409,168.29q152,0,303.09-76t251.49-229.79Q13899.88,3256.37,13898.05,3019.32Z" transform="translate(-169.15 -415.51)"/><path class="cls-2" d="M14707.84,4087.79v-2611a84.14,84.14,0,0,1,84.15-84.14h354.63a84.15,84.15,0,0,1,84.15,84.14v357.35h29q76-224.33,268.7-353.74t437-129.38q50.59,0,120.31,3.64,16,.82,30.37,1.75a84.21,84.21,0,0,1,79.1,84V1780c0,51.35-45.13,90.83-95.92,83.27q-9.56-1.41-19.86-2.88a1191.13,1191.13,0,0,0-166.5-11.77q-191.83,0-341.06,80.54t-236.16,222.55q-86.8,142.08-86.83,323V4087.79a84.14,84.14,0,0,1-84.14,84.14H14792A84.14,84.14,0,0,1,14707.84,4087.79Z" transform="translate(-169.15 -415.51)"/></svg>