<svg id="Capa_1" data-name="Capa 1" xmlns="http://www.w3.org/2000/svg" viewBox="0 0 3822.57 1167.51"><defs><style>.cls-1,.cls-2{fill:#fff;}.cls-1{fill-rule:evenodd;}</style></defs><title>logo_opaur_blanco</title><path class="cls-1" d="M466.32,81.21c216.14.62,362.54,217.5,285.38,422.91-12.93,34.41-28.87,67.55-49.15,98.13-10.57,16-12,27.66-.62,44.6,33.92,50.37,65,102.66,98.31,153.42,28.33,43.12,36,87.14,7.88,132.48-28.19,45.55-71,57.24-122.23,50.41-140.8-18.75-206.56-133.23-150.69-264a404.18,404.18,0,0,1,44.94-79c9.59-13.17,8.68-22.8-.23-36.21-31.29-47.11-60.76-95.41-91.5-142.88-17.91-27.66-28.25-27.93-45.52-1.34C411.52,508,381.51,557.24,349.38,605c-9.71,14.45-6.42,23.85,2,36.26,29.46,43.62,56.54,89.09,62.56,142.42,14.31,126.67-85.3,205.58-208.32,201C118.78,981.45,80.45,874,122.9,811.58c36.48-53.67,69.22-109.89,105.32-163.84,11.11-16.61,11-28.36.28-44.67A477.11,477.11,0,0,1,172,484.27C109.11,283.78,257.51,80.61,466.32,81.21ZM293.07,543.92C319,502.71,344.51,462.17,370,421.57c53.77-85.85,137.33-85.57,191.11.58,25.21,40.39,50.69,80.62,76.8,122.15,73.7-113.69,76.65-232.07-26.2-326.61-83.25-76.51-218.33-72.5-300.18,6.57C220.86,311.83,216,440.55,293.07,543.92ZM290.79,701.2C256.46,754.58,222.55,805.71,190.51,858c-11,18,.26,39.44,20,44.39C275.12,918.58,343.11,857,332,791.47,326.61,759.19,312.74,730.08,290.79,701.2Zm348.55-.8c-26.8,38.82-45.36,76.82-41,120.91,5,50.8,75.06,95.61,123.08,80.35,23-7.31,28.11-25.52,16.36-44.92-31.22-51.52-64.09-102-98.44-156.34Z" transform="translate(-105.53 -81.21)"/><path class="cls-2" d="M1656.75,551.34q0,143-52.31,245.6T1461.27,954.72q-90.88,55.14-206.38,55.13-116,0-206.81-55.13t-143.18-158q-52.3-102.87-52.3-245.39,0-143,52.3-245.61T1048.08,148Q1139,92.83,1254.89,92.82q115.5,0,206.38,55.13t143.17,157.78Q1656.75,408.39,1656.75,551.34Zm-133.37,0q0-109-35.09-183.71T1392.4,254.31q-60.8-38.58-137.51-38.58-77.15,0-137.73,38.58t-95.67,113.32q-35.09,74.76-35.08,183.71t35.08,183.71q35.09,74.76,95.67,113.32t137.73,38.57q76.71,0,137.51-38.57t95.89-113.32Q1523.38,660.31,1523.38,551.34Z" transform="translate(-105.53 -81.21)"/><path class="cls-2" d="M1703.17,1228.44v-880a20.29,20.29,0,0,1,20.27-20.27h86.74a20.29,20.29,0,0,1,20.27,20.27V436.7h10.89q11.33-20.93,32.69-48.38t59.27-48.16q37.92-20.7,100.25-20.71,81.08,0,144.71,41t100,118.11q36.38,77.15,36.39,185.68T2278.5,850.12q-36.18,77.37-99.37,119t-144.27,41.63q-61,0-99.6-20.48t-60.36-48q-21.8-27.46-33.56-48.82h-7.84v335a20.29,20.29,0,0,1-20.27,20.27h-89.79A20.28,20.28,0,0,1,1703.17,1228.44Zm127.71-565.53q0,70.62,20.48,123.79t59.28,83q38.79,29.85,95,29.85,58.39,0,97.63-31.16t59.49-84.77Q2183,730,2183,662.88q0-66.24-19.83-119t-59.28-83.25q-39.45-30.5-98.28-30.51-56.67,0-95.67,29.2t-59.06,81.51q-20,52.35-20,122.08Z" transform="translate(-105.53 -81.21)"/><path class="cls-2" d="M2569.61,1012.47q-63.65,0-115.08-23.75t-81.28-69.08q-29.86-45.33-29.86-111.15,0-56.65,21.79-93.27a160.82,160.82,0,0,1,58.84-58q37-21.35,82.81-32.25a821.34,821.34,0,0,1,93.27-16.56q60.17-7,97.64-11.56t54.49-15q17-10.46,17-34V544.8q0-57.09-32.06-88.48T2642,424.94q-65.84,0-103.51,29-30.33,23.31-45.57,50.7a20.22,20.22,0,0,1-22.17,10l-83.53-19a20.37,20.37,0,0,1-14-28.19q20.72-45.48,54.59-75.83a260.29,260.29,0,0,1,97-54.92q54.92-17.22,115.5-17.22,40.09,0,85.22,9.37a254.85,254.85,0,0,1,84.47,34.2q39.43,24.84,64.72,70.82T2900,553.08v424.3a20.28,20.28,0,0,1-20.27,20.27H2793a20.26,20.26,0,0,1-20.27-20.25V906.12h-5.23q-12.64,25.29-37.92,49.69t-64.94,40.54Q2625,1012.46,2569.61,1012.47Zm28.31-104.6q54,0,92.63-21.36t58.85-56a144.8,144.8,0,0,0,20.26-74.31V701.94a20.33,20.33,0,0,0-26.41-19.31l-.39.12a370.36,370.36,0,0,1-45.12,10q-25.27,4.15-49.26,7.42l-40.08,5.44q-37.93,4.8-69.09,16.13t-49.69,32.47q-18.52,21.13-18.52,56,0,48.39,35.73,73t91.09,24.66Z" transform="translate(-105.53 -81.21)"/><path class="cls-2" d="M3374.79,720V348.45a20.29,20.29,0,0,1,20.27-20.27h90.22a20.29,20.29,0,0,1,20.27,20.27V977.38a20.28,20.28,0,0,1-20.27,20.27h-87.61a20.26,20.26,0,0,1-20.26-20.26h0V881.72h-7q-23.1,53.6-73.87,89.13t-126.19,35.52q-64.5,0-114-28.55T2978.82,893q-28.11-56.22-28.12-139V348.45A20.28,20.28,0,0,1,2971,328.18h89.8A20.28,20.28,0,0,1,3081,348.45V738.32q0,68.43,37.91,109t98.51,40.54q36.61,0,73-18.31T3351,814.16Q3375.24,777.11,3374.79,720Z" transform="translate(-105.53 -81.21)"/><path class="cls-2" d="M3569.85,977.38V348.45a20.29,20.29,0,0,1,20.27-20.27h85.42a20.28,20.28,0,0,1,20.27,20.27h0v86.08h7q18.3-54,64.72-85.21t105.26-31.16q12.2,0,29,.87,3.84.2,7.31.42a20.29,20.29,0,0,1,19,20.24v81.8a20.17,20.17,0,0,1-20,20.27,20.76,20.76,0,0,1-3.05-.22l-4.79-.69a286.09,286.09,0,0,0-40.1-2.83q-46.21,0-82.15,19.39A147.44,147.44,0,0,0,3721.09,511q-20.91,34.23-20.91,77.8V977.38a20.28,20.28,0,0,1-20.27,20.27h-89.79a20.28,20.28,0,0,1-20.27-20.27Z" transform="translate(-105.53 -81.21)"/></svg>